<?xml version="1.0" standalone="no"?>
<!DOCTYPE svg PUBLIC "-//W3C//DTD SVG 20010904//EN"
 "http://www.w3.org/TR/2001/REC-SVG-20010904/DTD/svg10.dtd">
<svg version="1.0" xmlns="http://www.w3.org/2000/svg"
 width="70.000000pt" height="70.000000pt" viewBox="0 0 70.000000 70.000000"
 preserveAspectRatio="xMidYMid meet">
<metadata>
Created by potrace 1.11, written by Peter Selinger 2001-2013
</metadata>
<g transform="translate(0.000000,70.000000) scale(0.100000,-0.100000)"
fill="#000000" stroke="none">
<path d="M0 350 l0 -350 350 0 350 0 0 350 0 350 -350 0 -350 0 0 -350z m405
194 l40 -13 -37 6 c-21 3 -38 2 -38 -3 0 -4 5 -36 11 -71 10 -55 9 -66 -5 -82
-19 -20 -15 -21 179 -38 l90 -8 -60 -6 c-33 -4 -86 -7 -117 -8 -32 -1 -58 -5
-58 -9 0 -4 18 -25 39 -46 26 -25 44 -36 53 -31 7 5 0 -6 -17 -24 -18 -20 -49
-37 -82 -47 -49 -14 -53 -18 -54 -47 -1 -33 -3 -30 -13 16 -4 16 -13 27 -23
27 -9 0 -36 10 -61 21 -47 23 -90 79 -101 131 -6 31 -10 33 -56 39 -28 3 -38
7 -23 7 42 3 78 20 78 37 0 60 88 148 160 160 32 5 40 11 41 28 1 20 1 20 8
-2 4 -17 19 -28 46 -37z m60 -100 c-8 -20 -15 -38 -15 -40 0 -2 -12 -4 -27 -4
l-27 0 39 40 c21 22 40 40 42 40 2 0 -4 -16 -12 -36z"/>
<path d="M268 519 c-21 -11 -38 -24 -38 -28 0 -5 15 -15 34 -21 35 -11 46 -26
46 -60 0 -11 9 -24 20 -30 19 -10 20 -8 20 75 0 82 -1 85 -22 85 -13 -1 -40
-10 -60 -21z"/>
<path d="M201 458 c-7 -12 -17 -35 -22 -51 l-8 -29 47 6 c88 13 89 13 46 57
-21 21 -41 39 -44 39 -3 0 -11 -10 -19 -22z"/>
<path d="M175 323 c8 -35 37 -86 49 -87 5 -1 14 15 21 34 9 25 19 36 42 42 17
4 36 15 43 23 11 13 2 15 -75 15 l-87 0 7 -27z"/>
<path d="M350 265 l0 -88 43 7 c23 4 53 14 67 23 l24 16 -43 21 c-31 15 -44
28 -48 48 -3 15 -14 35 -24 44 -18 17 -19 15 -19 -71z"/>
<path d="M273 268 c-18 -19 -33 -37 -33 -41 0 -10 70 -40 77 -33 3 2 1 28 -4
56 l-8 51 -32 -33z"/>
</g>
</svg>
