<svg xmlns="http://www.w3.org/2000/svg" width="65.585" height="72"><path d="M61.106 45.885l-1.154-4.306-8.868 2.376-3.6-7.955 3.6-7.955 8.868 2.376 1.154-4.306-4.6-1.233 7.712-4.453-2.23-3.861-7.712 4.452 1.232-4.6-4.307-1.153-2.376 8.868-8.688-.861-5.09-7.093 6.493-6.492-3.152-3.151-3.367 3.367V1h-4.458v8.905l-3.368-3.367-3.152 3.153 6.493 6.492-5.09 7.093-8.688.861-2.376-8.868-4.307 1.153 1.232 4.6-7.712-4.452-2.229 3.86 7.712 4.453-4.6 1.233 1.154 4.306 8.868-2.376L18.095 36l-3.6 7.954-8.868-2.377-1.154 4.306 4.6 1.232-7.707 4.455 2.229 3.861 7.712-4.452-1.232 4.6 4.307 1.154 2.376-8.869 8.688.861 5.09 7.094-6.492 6.492 3.151 3.151 3.368-3.362V71h4.459v-8.905l3.367 3.367 3.153-3.153-6.493-6.492 5.09-7.094 8.688-.861 2.376 8.869 4.307-1.154-1.232-4.6 7.712 4.452 2.23-3.861-7.712-4.453zM18.934 36l2.35-4.07L28.333 36l-7.049 4.07zm11.629 12h-4.7l-2.35-4.07 7.049-4.07V48zm0-15.862l-7.049-4.07L25.863 24h4.7v8.14zM35.021 24h4.7l2.35 4.07-7.049 4.07zm4.7 24h-4.7v-8.14l7.049 4.07zm4.579-7.931L37.251 36l7.049-4.07L46.65 36z" fill="none" stroke="#11304c" stroke-width="2"/></svg>