<svg xmlns="http://www.w3.org/2000/svg" width="100.541" height="72"><g fill="none" stroke="#11304c" stroke-width="2"><path data-name="Trazado 196" d="M1.696 59.143l-.239.746A8.511 8.511 0 0 0 9.557 71H90.98a8.511 8.511 0 0 0 8.1-11.111l-.239-.746z"/><path data-name="Trazado 197" d="M96.995 53.375l-.919-2.865a8.481 8.481 0 0 0-5.621-5.544 40.994 40.994 0 0 0-37.3-32.79V6.769h5.595a2.885 2.885 0 1 0 0-5.769H41.792a2.885 2.885 0 0 0 0 5.769h5.595v5.407a40.994 40.994 0 0 0-37.3 32.79 8.481 8.481 0 0 0-5.621 5.544l-.919 2.865h93.449z"/></g></svg>