<svg xmlns="http://www.w3.org/2000/svg" width="70" height="70"><path d="M0 0h70v70H0z" fill="rgba(0,0,0,0)"/><path d="M56.116 60.117a17.9 17.9 0 0 1-10.559-3.684 17.366 17.366 0 0 1-21.118 0 17.9 17.9 0 0 1-10.56 3.684H8.596v5.585h5.28a22.3 22.3 0 0 0 10.559-2.763 22 22 0 0 0 21.118 0 21.981 21.981 0 0 0 10.563 2.763h5.28v-5.585zm-42.369-5.582h.132c4.224 0 7.972-2.456 10.559-5.581 2.587 3.126 6.336 5.581 10.559 5.581s7.972-2.456 10.559-5.581c2.587 3.126 6.336 5.581 10.559 5.581h.132l4.989-18.642a3.092 3.092 0 0 0-.158-2.177 2.672 2.672 0 0 0-1.584-1.4l-3.378-1.167V18.256a5.453 5.453 0 0 0-5.28-5.581h-7.919V4.302H27.078v8.372h-7.919a5.453 5.453 0 0 0-5.28 5.581v12.894l-3.405 1.172a2.672 2.672 0 0 0-1.584 1.4 2.955 2.955 0 0 0-.158 2.177zm5.412-36.279h31.678v11.079l-15.841-5.498-15.839 5.5z" fill="none" stroke="#11304c" stroke-width="2"/></svg>