<svg xmlns="http://www.w3.org/2000/svg" width="65.423" height="70"><path d="M23.812 44.692l-.5 4.7a1.346 1.346 0 0 0 1.339 1.493h14.236a1.346 1.346 0 0 0 1.338-1.485l-.5-4.7h17.73a5.01 5.01 0 0 0 5-5V5a5.01 5.01 0 0 0-5-5H5.005a5.01 5.01 0 0 0-5 5v34.688a5.01 5.01 0 0 0 5 5h18.807zm13.579 3.5h-11.24l.37-3.5h10.5zM5.005 2.692h52.452A2.315 2.315 0 0 1 59.769 5v30.538H2.692V5a2.315 2.315 0 0 1 2.313-2.308zm-2.312 37v-1.461h57.076v1.457A2.315 2.315 0 0 1 57.457 42H5.005a2.315 2.315 0 0 1-2.313-2.312zM57.42 59.93a1.346 1.346 0 0 0 .044-1.32l-2.659-5.115a1.346 1.346 0 0 0-1.195-.725H8.851a1.346 1.346 0 0 0-1.195.725L4.998 58.61a1.346 1.346 0 0 0 1.195 1.967h50.076a1.346 1.346 0 0 0 1.151-.647zM8.409 57.885l1.259-2.423h43.125l1.26 2.423zM59.769 63h-2.154a5.66 5.66 0 0 0-5.654 5.654A1.346 1.346 0 0 0 53.307 70h10.769a1.346 1.346 0 0 0 1.346-1.346A5.66 5.66 0 0 0 59.769 63zm-4.791 4.308a2.965 2.965 0 0 1 2.637-1.615h2.154a2.965 2.965 0 0 1 2.638 1.615z" fill="#11304c"/></svg>