<svg xmlns="http://www.w3.org/2000/svg" width="83.777" height="72.095"><g fill="none" stroke="#11304c" stroke-width="2"><path d="M69.635 18.524H38.676l-5.493 15.1a1.46 1.46 0 0 1-1.373.964H12.683v35.047a1.46 1.46 0 0 0 1.46 1.46h30.93l4.059-12.15a1.447 1.447 0 0 1 1.373-.993h20.591V19.984a1.46 1.46 0 0 0-1.46-1.46zm-48.19 46.73h-2.921v-2.921h2.921zm0-7.3h-2.921v-2.921h2.921zm0-7.3h-2.921v-2.921h2.921zm0-7.3h-2.921v-2.93h2.921zm11.682 21.9h-8.762v-2.921h8.762zm0-7.3h-8.762v-2.921h8.762zm0-7.3h-8.762v-2.921h8.762zm0-7.3h-8.762v-2.93h8.762zm5.841 21.9h-2.921v-2.921h2.921zm0-7.3h-2.921v-2.921h2.921zm0-7.3h-2.921v-2.921h2.921zm0-7.3h-2.921v-2.93h2.921zm27.409-9.287l-14.6 17.524a1.461 1.461 0 0 1-2.508-1.4l3.738-11.221H47.73a1.46 1.46 0 0 1-1.342-2.036l4.381-10.222a1.46 1.46 0 0 1 1.342-.885h7.3a1.46 1.46 0 0 1 1.314 2.113l-1.872 3.729h6.4a1.46 1.46 0 0 1 1.123 2.4zM6.841 52.111h2.921v2.921H6.841zM2.46 37.508H1v32.127h1.46a1.46 1.46 0 0 0 1.46-1.46V38.968a1.46 1.46 0 0 0-1.46-1.46zM33.916 1l-3.9 5.841h47.11L73.227 1zm18.195 8.762h4.381v5.841h-4.381zm29.206 13.143a1.46 1.46 0 0 0-1.46 1.46v29.206a1.46 1.46 0 0 0 1.46 1.46h1.46V22.905zm0 0"/><path d="M50.592 63.794h15.22l1.46-2.921H51.556zm23.424-26.286h2.921v2.921h-2.921zm-42.174-8.762H19.254l-2.191 2.921H30.79zm0 0"/></g></svg>