<svg xmlns="http://www.w3.org/2000/svg" width="56.949" height="70"><g fill="#11304c"><path d="M28.474 60.508a1.186 1.186 0 0 0 1.186-1.186V20.169a1.187 1.187 0 1 0-2.373 0v39.153a1.186 1.186 0 0 0 1.187 1.186zm-11.864 0a1.186 1.186 0 0 0 1.186-1.186V20.169a1.187 1.187 0 1 0-2.373 0v39.153a1.186 1.186 0 0 0 1.187 1.186zm23.729 0a1.186 1.186 0 0 0 1.186-1.186V20.169a1.187 1.187 0 1 0-2.373 0v39.153a1.186 1.186 0 0 0 1.187 1.186z"/><path d="M55.763 7.119H39.1a9.43 9.43 0 0 0-2.151-5.589A5.019 5.019 0 0 0 33.219 0H21.356a5.019 5.019 0 0 0-3.73 1.529 9.43 9.43 0 0 0-2.151 5.589H1.186a1.187 1.187 0 0 0 0 2.373h2.422l2.272 54.6C5.924 66.136 7.2 70 11.7 70h33.546c4.507 0 5.779-3.864 5.822-5.882l2.273-54.626h2.422a1.187 1.187 0 1 0 0-2.373zM19.329 3.181a2.69 2.69 0 0 1 2.026-.808h11.864a2.69 2.69 0 0 1 2.026.808 6.982 6.982 0 0 1 1.471 3.938H17.859a6.989 6.989 0 0 1 1.47-3.938zM48.7 64.043c-.007.367-.171 3.584-3.45 3.584H11.7c-3.244 0-3.438-3.224-3.451-3.609L5.982 9.492h44.984z"/></g></svg>