<svg xmlns="http://www.w3.org/2000/svg" width="70.978" height="71.421"><path data-name="Trazado 15" d="M0 .421h65.831v65.831H0z" fill="rgba(0,0,0,0)"/><path data-name="Trazado 16" d="M67.066 17.314l.04-.039L52.264 2.928l-4.229 4.089 8.418 8.138a9.629 9.629 0 0 0-6.423 8.986 9.816 9.816 0 0 0 9.974 9.642 10.5 10.5 0 0 0 3.99-.81v27.806a3.992 3.992 0 0 1-7.979 0V43.424a7.873 7.873 0 0 0-7.979-7.713h-3.988v-27A7.873 7.873 0 0 0 36.066 1H12.127a7.873 7.873 0 0 0-7.979 7.713v61.708h39.9V41.5h5.985v19.279a9.98 9.98 0 0 0 19.949 0V24.14a9.49 9.49 0 0 0-2.916-6.826zM36.066 28H12.127V8.713h23.939zm23.938 0a3.859 3.859 0 1 1 3.99-3.857A3.936 3.936 0 0 1 60.004 28z" fill="none" stroke="#11304c" stroke-width="2"/></svg>