<svg xmlns="http://www.w3.org/2000/svg" width="72.736" height="70"><g fill="#11304c"><path d="M13.864 12.69l-5.446 3.137a2.232 2.232 0 0 0-.819 3.044l3.137 5.445a1.644 1.644 0 0 0 2.848-1.642l-2.608-4.528 4.529-2.609a1.644 1.644 0 1 0-1.641-2.848z"/><path d="M72.244 29.339L60.207 7.5a3.971 3.971 0 0 0-5.389-1.559l-17.856 9.841-7.947-13.8A3.972 3.972 0 0 0 23.6.529L1.989 12.976a3.967 3.967 0 0 0-1.458 5.418l12.447 21.608a3.969 3.969 0 0 0 5.422 1.457l1.727-.995-6.342 9.383a3.967 3.967 0 0 0 1.066 5.508l20.66 13.964a3.966 3.966 0 0 0 5.508-1.065l13.964-20.66a3.971 3.971 0 0 0 .109-4.269l15.6-8.6a3.972 3.972 0 0 0 1.552-5.386zm-55.488 9.272a.681.681 0 0 1-.929-.25L3.38 16.753a.681.681 0 0 1 .25-.929L25.238 3.376a.681.681 0 0 1 .929.25l7.916 13.742-1.1.609a3.967 3.967 0 0 0-1.559 5.389l2.843 5.16-.222.128-.787-.532a3.967 3.967 0 0 0-5.508 1.065l-3.423 5.065zm35.5 7.142l-13.964 20.66a.682.682 0 0 1-.566.3.666.666 0 0 1-.379-.117l-20.66-13.964a.68.68 0 0 1-.183-.944l13.965-20.661a.681.681 0 0 1 .566-.3.666.666 0 0 1 .379.117l20.66 13.964a.681.681 0 0 1 .182.945zM69.1 31.849l-16.708 9.208-11.9-8.046L34.3 21.776a.679.679 0 0 1 .267-.924L56.4 8.819a.68.68 0 0 1 .924.267l12.041 21.84a.681.681 0 0 1-.265.923z"/><path d="M57.235 13.874a2.233 2.233 0 0 0-3.028-.876l-5.5 3.033a1.644 1.644 0 1 0 1.587 2.879l4.573-2.52 2.523 4.577a1.644 1.644 0 0 0 2.879-1.587zM28.456 53.481l-4.33-2.926 2.927-4.33a1.644 1.644 0 1 0-2.724-1.841L20.81 49.59a2.232 2.232 0 0 0 .6 3.1l5.207 3.518a1.644 1.644 0 1 0 1.841-2.723z"/></g></svg>