<svg xmlns="http://www.w3.org/2000/svg" width="54.06" height="62.114"><path d="M52.801 37.359l-5-6a1.032 1.032 0 0 0-1.54 0l-5 6a1 1 0 0 0 .77 1.64h1.59C42.142 45.03 36.78 49.68 30.029 50.76V25h9a1 1 0 0 0 1-1v-4a1 1 0 0 0-1-1h-9v-2.58a8 8 0 1 0-6 0V19h-9a1 1 0 0 0-1 1v4a1 1 0 0 0 1 1h9v25.76C17.278 49.68 11.918 45.03 10.442 39h1.59a1 1 0 0 0 .77-1.64l-5-6a1.032 1.032 0 0 0-1.54 0l-5 6A1 1 0 0 0 2.027 39h2.231c1.46 9.3 9.57 16.611 19.771 17.822V58a1.035 1.035 0 0 0 .29.71l2 2a1.015 1.015 0 0 0 1.421 0l2-2a1.032 1.032 0 0 0 .29-.71v-1.18C40.23 55.61 48.342 48.3 49.8 39h2.23a1 1 0 0 0 .77-1.64zM27.029 12a3 3 0 1 1 3-3 3 3 0 0 1-3 3zm0 0" fill="none" stroke="#11304c" stroke-width="2" data-name="Grupo 30"/></svg>