<svg xmlns="http://www.w3.org/2000/svg" width="165.892" height="63.034"><g fill="#fcfcfc"><path d="M.046.4c.046.368.153.429 1.057.659a5.263 5.263 0 0 1 1.547.659c.643.49.889.981 3.8 7.706 1.287 2.942 3.554 8.181 5.056 11.644 1.5 3.447 2.8 6.466 2.911 6.7a.608.608 0 0 0 .643.429c.383 0 .49-.107.735-.659.153-.352 2.283-5.577 4.749-11.6 2.451-6.021 4.734-11.522 5.056-12.2A4.7 4.7 0 0 1 29.093.827c.092-.031.184-.23.184-.444V0h-8.732v.383c0 .214.092.414.2.444 1.563.429 1.961.613 2.313 1.026.567.674.506 1.226-.352 3.555-.72 1.961-5.623 14.034-6.251 15.428l-.322.689-.383-.843c-.567-1.21-6.021-13.789-6.619-15.245a15.368 15.368 0 0 1-.7-2.176c-.169-.827-.169-.981.061-1.333a2.7 2.7 0 0 1 1.976-.981c.735-.092.812-.153.858-.536l.046-.414H0zm38.609.014c.046.383.123.444.766.536a3.687 3.687 0 0 1 2.451 1.425c.444.628 2.405 5.041 8.243 18.569l3.125 7.247h.965l4.8-11.767c4.78-11.705 5.424-13.191 6.021-14A4.323 4.323 0 0 1 67.14 1.03c.567-.169.689-.26.72-.613l.046-.414h-8.61l.046.4c.046.352.153.444.858.613 1.027.26 1.563.613 1.808 1.21.368.873.23 1.256-4.382 12.533-1.547 3.769-2.819 6.833-2.834 6.818-.046-.046-3.355-7.691-6.22-14.341-2.007-4.627-2.053-5.516-.306-6.067A8.22 8.22 0 0 1 49.43.893c.368-.031.475-.123.506-.475l.046-.414H38.609z"/><path d="M82.457 4.455l-.015 4.075-1.869.092a21.336 21.336 0 0 0-14.141 6.466 21.669 21.669 0 0 0-4.137 5.623 24.438 24.438 0 0 0-2.482 8.013l-.123.751-5.822 1.027c-3.2.567-6.021 1.1-6.282 1.2-.322.107 1.318.153 5.837.123l6.3-.046.092 1.318a22.843 22.843 0 0 0 6.236 13.789 21.441 21.441 0 0 0 6.818 4.627 25.162 25.162 0 0 0 7.124 2.068l.689.123.919 4.627c.506 2.543.965 4.658 1.011 4.7a55.821 55.821 0 0 0 .291-6.879v-2.329l.582-.107a11.2 11.2 0 0 1 1.348-.092 16.313 16.313 0 0 0 2.1-.23 20.134 20.134 0 0 0 11.613-6.619 34.175 34.175 0 0 0 4.872-8.2c.582-1.471.276-1.333-.582.245a27.683 27.683 0 0 1-3.769 5.715l-1.072 1.149-4.692-4.945-4.7-4.964.8-.046c.429-.015 17.634-.858 38.241-1.869s37.7-1.854 38-1.885c1.9-.153-6.174-.306-41.826-.812-22.031-.306-40.064-.567-40.079-.582a42.173 42.173 0 0 1 4.566-4.014 10.719 10.719 0 0 1 2.819-.092l2.313.077 2.375-5.577c1.3-3.064 2.344-5.607 2.313-5.653-.077-.077-1.838 1.716-7.109 7.186l-3.447 3.57-.965-5.179c-.536-2.865-1.2-6.328-1.471-7.722-.49-2.528-.49-2.528-.168-2.574a27.651 27.651 0 0 1 5.3.889c3.524.751 3.677.781 3.677.628a25.653 25.653 0 0 0-4.887-2.221 30.834 30.834 0 0 0-3.125-.873c-.858-.169-1.578-.337-1.624-.368-.031-.031-.429-1.839-.873-4.014-.46-2.176-.858-4.029-.889-4.106-.056-.094-.087 1.684-.087 3.917zm-.138 15.336c-.015 5.163-.061 9.514-.077 9.668-.031.215-.521-.138-2.1-1.456l-2.068-1.731-.092-1.3c-.061-.72-.153-2.1-.215-3.08l-.107-1.793-4.305-1.793c-2.375-1-4.351-1.839-4.382-1.869-.138-.107 1-1.149 2.268-2.114 2.957-2.237 7.231-3.861 10.2-3.892l.935-.015zm-9.085 1.946l4.428 4.535-7.262 1.287c-4 .7-7.308 1.256-7.354 1.2a16.557 16.557 0 0 1 .935-4.336 20.327 20.327 0 0 1 2.834-5.577c1.348-1.823 1.532-2.022 1.793-1.823.106.091 2.195 2.22 4.626 4.718zm5.99 12.425l-2.681 2.593-2.068-.092-2.068-.077-1.532 4.305c-.843 2.359-1.593 4.305-1.655 4.305a13.738 13.738 0 0 1-2.436-2.559 19.485 19.485 0 0 1-3.754-9.652l-.092-1.272 5.424-.046c2.988-.015 7.247-.046 9.484-.061l4.06-.031zm5.24-1.072c.7.812 1.609 1.854 2.007 2.329l.735.873.306 2.038c.153 1.118.322 2.252.368 2.513.077.46.276.567 4.826 2.758 2.6 1.256 4.749 2.344 4.749 2.405a24.385 24.385 0 0 1-4.52 2.788 17.889 17.889 0 0 1-5.5 1.747 18.7 18.7 0 0 1-4.29.077c-.215-.092-.245-1.073-.245-9.591 0-5.73.061-9.468.138-9.438a15.1 15.1 0 0 1 1.426 1.505zm-6.251 7.967c.306 1.639.812 4.336 1.149 5.975a27.249 27.249 0 0 1 .536 3.049 14.141 14.141 0 0 1-3.432-.781c-2.451-.766-6.358-2.9-6.358-3.463 0-.092 1.655-2.007 3.662-4.259 3.064-3.417 3.692-4.045 3.8-3.8.061.157.352 1.643.643 3.283zM32.863 6.281a5.539 5.539 0 0 0-3.784 2.88 7.986 7.986 0 0 0 .414 5.929l.368.812-1.394.812a19.277 19.277 0 0 0-2.5 1.869c-3.079 2.88-3.263 6.833-.4 8.672a8 8 0 0 0 7.308.077 12.039 12.039 0 0 0 1.869-1.2l1.042-.8 1.1.935a6.437 6.437 0 0 0 3.968 1.884 4.744 4.744 0 0 0 5.041-3.57c.23-.72.23-.766-.015-.95-.4-.291-.46-.26-.827.49-.781 1.609-2.7 1.992-4.52.919a9.462 9.462 0 0 1-1.5-1.272l-.9-.9.72-.981c.4-.536 1.318-1.976 2.038-3.2 1.7-2.85 2.237-3.447 3.34-3.692.72-.169.827-.23.827-.552v-.352H38.47v.368c0 .26.138.414.46.552 1.088.46 1.2 1.992.245 3.907a11.757 11.757 0 0 1-1.9 2.788 50.715 50.715 0 0 1-3.34-4.995c-.689-1.134-.858-.843 1.41-2.3 2.007-1.287 2.8-2.375 2.942-3.968.2-2.283-1.394-4.014-3.876-4.229a7.049 7.049 0 0 0-1.548.067zM35.1 7.798c1.7.889 1.593 3.524-.214 5.194-.827.766-2.068 1.486-2.237 1.318a16.524 16.524 0 0 1-1.164-3.57c-.292-2.222 1.792-3.922 3.615-2.938zm-3.968 10.618c.352.7 1.318 2.283 2.145 3.509.843 1.226 1.517 2.268 1.517 2.314a9.337 9.337 0 0 1-2.114 1.486 3.969 3.969 0 0 1-5.408-1.854 4.441 4.441 0 0 1 1.027-5.01 8.71 8.71 0 0 1 2.16-1.7c.014-.002.321.565.673 1.255z"/><path d="M148.658 21.496c-.077.107-.674 1.532-1.333 3.171-1.563 3.922-1.823 4.443-2.39 4.642-.245.092-.444.26-.444.368 0 .153.368.2 1.379.2 1.118 0 1.379-.046 1.379-.23 0-.138-.138-.23-.368-.23-.643 0-.7-.291-.291-1.348l.383-.965 1.532.046 1.532.046.368.919c.414 1 .383 1.3-.092 1.3-.169 0-.307.107-.307.23 0 .184.291.23 1.685.23s1.685-.046 1.685-.23a.239.239 0 0 0-.245-.23c-.567 0-1.088-.919-2.5-4.4a28.36 28.36 0 0 0-1.639-3.631.322.322 0 0 0-.334.112zm.414 3.355c.276.7.552 1.364.582 1.456.061.153-.23.2-1.18.2s-1.241-.046-1.18-.2a22.23 22.23 0 0 1 1.18-2.712 7.309 7.309 0 0 1 .598 1.256zm-31.055-.766c-.6 1.456-1.256 3.11-1.486 3.692a4.3 4.3 0 0 1-.858 1.394c-.7.6-.567.7.781.7.935 0 1.226-.046 1.226-.215 0-.107-.2-.245-.46-.306-.552-.107-.567-.26-.138-1.379l.337-.858h3.034l.306.72c.444 1.042.46 1.486.031 1.547-.2.031-.352.153-.352.276 0 .169.322.215 1.609.215s1.609-.046 1.609-.215c0-.123-.138-.26-.306-.322-.475-.153-.8-.735-1.961-3.6-1.762-4.351-1.731-4.29-2.022-4.29-.201.006-.538.649-1.35 2.641zm2.068 2.375a6.331 6.331 0 0 1-1.226.015l-1.149-.046.49-1.226c.276-.674.552-1.364.613-1.532.092-.245.245 0 .72 1.21a8.9 8.9 0 0 1 .552 1.579zm-15.581-4.627c0 .153.153.23.506.23a1.16 1.16 0 0 1 .689.184c.138.138.184 1.118.184 3.493s-.046 3.355-.184 3.493a1.16 1.16 0 0 1-.689.184c-.352 0-.506.077-.506.23 0 .184.291.23 1.685.23s1.685-.046 1.685-.23c0-.153-.153-.23-.429-.23-.935 0-.965-.077-.919-3.371l.046-2.972 1.379 3.4c1.318 3.263 1.379 3.4 1.777 3.4.46 0 .475-.031 2.3-4.949l.674-1.808.046 2.942c.046 3.187 0 3.355-.751 3.355-.291 0-.444.077-.444.23 0 .184.291.23 1.762.23s1.762-.046 1.762-.23a.264.264 0 0 0-.291-.23c-.6 0-.643-.291-.6-3.769l.046-3.355.582-.138c.306-.077.567-.23.567-.352 0-.153-.337-.2-1.364-.2h-1.364l-.4 1.026c-.214.582-.766 2.022-1.21 3.233-.46 1.2-.858 2.206-.9 2.252a31.794 31.794 0 0 1-1.364-3.187l-1.3-3.248-1.486-.046c-1.259-.027-1.489.004-1.489.203zm18.997 0c0 .123.138.23.322.23a1.8 1.8 0 0 1 .613.153c.276.153.291.352.291 3.539v3.386l-.46.169c-.245.092-.46.26-.46.368 0 .153.429.2 1.762.2 1.471 0 1.762-.046 1.762-.23 0-.153-.153-.23-.429-.23-.7 0-.8-.23-.8-1.884v-1.531l1.011.092c.8.061 1.1.153 1.379.429a5.448 5.448 0 0 1 .827 2.589c0 .766.046.781 3.217.735 2.206-.031 2.972-.092 3.034-.245.031-.107-.092-.184-.322-.184-.9 0-.873.123-.873-3.677v-3.493l.567-.138a1.021 1.021 0 0 0 .628-.322c.046-.153-.383-.184-1.9-.153a5.3 5.3 0 0 0-2.007.215c-.031.092.2.215.536.276.521.077.613.153.7.567a39.089 39.089 0 0 1-.061 6.174 1.157 1.157 0 0 1-2.084-.184c-.429-1.9-.689-2.329-1.624-2.712l-.659-.26.475-.2a2.807 2.807 0 0 0 .889-.7 1.33 1.33 0 0 0 .368-1.318c-.138-1.578-.827-1.884-4.32-1.884-2.014-.007-2.382.024-2.382.223zm4.811.72a1.63 1.63 0 0 1 .291 1.961 1.682 1.682 0 0 1-1.762.919h-.74v-3.217h.9c.744 0 1 .076 1.311.337zm7.906-.75c0 .138.214.26.536.322l.536.107v3.4c0 3.616-.031 3.784-.72 3.784-.214 0-.352.092-.352.23 0 .184.26.23 1.455.23s1.456-.046 1.456-.23c0-.138-.138-.23-.352-.23a1.166 1.166 0 0 1-.613-.2c-.245-.169-.26-.49-.23-3l.046-2.819 2.375 3.11c1.3 1.7 2.451 3.2 2.543 3.309a.613.613 0 0 0 .429.214c.214 0 .245-.383.245-3.738 0-4.06.031-4.229.858-4.229.23 0 .368-.092.368-.23 0-.184-.26-.23-1.456-.23-1.134 0-1.456.046-1.456.215 0 .123.23.26.536.306.674.138.72.368.659 3.294l-.046 2.206-2.3-2.972-2.314-2.972-1.1-.046c-.873-.031-1.103 0-1.103.169z"/></g></svg>