<svg xmlns="http://www.w3.org/2000/svg" width="70.786" height="72.123"><path d="M69.646 61.861a4.138 4.138 0 0 0-2.894-2.648 21.656 21.656 0 0 0-2.938-.7 24.95 24.95 0 0 1-2.458-.556 6.433 6.433 0 0 1-.244-.08c.185-.189.376-.379.537-.538a13.341 13.341 0 0 0 2.085-2.416 3.711 3.711 0 0 0-.31-4.676 4.592 4.592 0 0 0-3.324-1.286 5.973 5.973 0 0 0-1.894.325c.019-1.165.009-2.29-.03-3.344-.2-5.486-1.106-8.905-2.855-10.76 0-4.2-1.668-10.376-4.475-16.528C46.581 9.3 40.957 2.511 37.475 2.511a2.178 2.178 0 0 0-.91.19 2.092 2.092 0 0 0-.106.053l-1.72.786a59.673 59.673 0 0 0-6.464-1.852A25.592 25.592 0 0 0 22.936 1c-2.5 0-4.126.64-4.985 1.956a4.123 4.123 0 0 0-.429 3.475 6.923 6.923 0 0 0 .376 1.019c1.746 3.827 9.739 10.165 18.594 14.744a.926.926 0 0 0 .631.08 2.428 2.428 0 0 1 .545-.062 2.451 2.451 0 1 1-2.412 2.881.925.925 0 0 0-.485-.661c-7.051-3.653-13.527-8.256-17.324-12.312a.925.925 0 0 0-1.059-.209l-14.84 6.768a.925.925 0 0 0-.533.962A70.278 70.278 0 0 0 6.85 38.719a70.273 70.273 0 0 0 10.583 16.912.923.923 0 0 0 1.076.228L49.43 41.753c.038.286.077.577.119.88a49.3 49.3 0 0 1 .575 5.984 7.794 7.794 0 0 1-.259 2.364h0c-.364-.04-.815-.114-1.252-.188a16.648 16.648 0 0 0-2.684-.3 3.826 3.826 0 0 0-3.628 1.816c-1.107 1.948-.006 4.339 1.076 6.2-.609.169-1.441.315-1.993.411a19.3 19.3 0 0 0-2.427.529 3.879 3.879 0 0 0-2.682 2.251 3.6 3.6 0 0 0 .83 3.669 14.581 14.581 0 0 0 6.97 4.511 27.656 27.656 0 0 0 8.485 1.243 32.757 32.757 0 0 0 8.569-1.114 15.848 15.848 0 0 0 6.467-3.235c.749-.709 2.73-2.594 2.05-4.913zm-22.762-2.2a2.072 2.072 0 0 0-.321-1.855c-1.04-1.831-1.4-3.075-1.061-3.695.073-.133.293-.539 1.326-.539a12.483 12.483 0 0 1 1.993.245 11.522 11.522 0 0 0 1.813.227 1.812 1.812 0 0 0 .651-.1.808.808 0 0 0 .289-.193c1.722-1.792 1.323-6.828.767-11.834a11.8 11.8 0 0 1-.185-3.436.151.151 0 0 1 .13-.065c1.6.513 2.612 3.469 2.929 8.55a64.77 64.77 0 0 1 .081 5.6.851.851 0 0 0 .433.772.775.775 0 0 0 .852-.07 4.62 4.62 0 0 1 2.6-1.1 2.12 2.12 0 0 1 1.355.474h0c.728.815.1 1.742-1.49 3.39-1.088 1.128-1.58 1.725-1.622 2.288a.88.88 0 0 0 .058.385c.518 1.333 2.563 1.745 4.54 2.144 1.652.334 3.213.648 3.454 1.508.155.553-.242 1.292-1.214 2.261-1.987 1.982-6.778 3.362-11.652 3.362-5.342 0-9.655-1.616-11.835-4.434-.367-.475-.5-.872-.387-1.18.234-.654 1.5-.886 2.844-1.131 1.885-.345 3.25-.659 3.652-1.576zm-3.763-37.487a50.981 50.981 0 0 1-3.664-10.931 22.862 22.862 0 0 1-.408-3.1h0a22.832 22.832 0 0 1 2.07 2.337 51 51 0 0 1 5.856 9.936 50.969 50.969 0 0 1 3.664 10.931 22.832 22.832 0 0 1 .408 3.1 22.805 22.805 0 0 1-2.072-2.347 50.946 50.946 0 0 1-5.854-9.926zM20.275 4.472c.137-.21.668-.7 2.624-.7a22.985 22.985 0 0 1 4.753.62c1.034.227 2.154.516 3.331.861l-8.516 3.884a11.262 11.262 0 0 1-2.039-2.821 4.273 4.273 0 0 1-.232-.626 1.453 1.453 0 0 1 .079-1.218z" fill="none" stroke="#11304c" stroke-width="2"/></svg>