<svg xmlns="http://www.w3.org/2000/svg" width="89.784" height="72"><g fill="none" stroke="#11304c" stroke-width="2"><path data-name="Trazado 191" d="M1 43.531v20.574a2.572 2.572 0 0 0 2.572 2.572h16.81V40.959H3.572A2.572 2.572 0 0 0 1 43.531zm0 0"/><path data-name="Trazado 192" d="M55.183 38.412v-4.483a2.618 2.618 0 0 0-.034-.4H34.64a2.542 2.542 0 0 0-.034.4v4.486l-3.718 2.544h-5.363v25.718h5.714a7.271 7.271 0 0 1 2.942.583c.638.263 1.34.556 2.061.857 2.286.954 4.651 1.941 6.04 2.428a7.709 7.709 0 0 0 5.217 0c1.777-.623 5.509-2.148 8.163-3.264a7.278 7.278 0 0 1 2.992-.6h5.617V40.959h-5.376zm0 0"/><path data-name="Trazado 193" d="M86.212 40.959h-16.8v25.718h16.8a2.572 2.572 0 0 0 2.572-2.572V43.531a2.572 2.572 0 0 0-2.572-2.572zm0 0"/><path data-name="Trazado 194" d="M63.752 1h-37.72a5.144 5.144 0 1 0 0 10.287h37.72a5.144 5.144 0 1 0 0-10.287zm0 0"/><path data-name="Trazado 195" d="M39.749 16.431h10.287v11.955H39.749zm0 0"/></g></svg>