<svg xmlns="http://www.w3.org/2000/svg" width="53.425" height="72"><g fill="#11304c"><path data-name="Trazado 154" d="M1.162 62.71a1.161 1.161 0 0 1-1.161-1.161 10.463 10.463 0 0 1 10.452-10.453 1.161 1.161 0 0 1 0 2.323 8.14 8.14 0 0 0-8.129 8.129 1.16 1.16 0 0 1-1.161 1.161zm0 0"/><path data-name="Trazado 155" d="M52.264 62.709a1.161 1.161 0 0 1-1.161-1.161c0-4.578-4.995-8.129-9.292-8.129a1.161 1.161 0 0 1 0-2.323c5.483 0 11.615 4.47 11.615 10.452a1.16 1.16 0 0 1-1.162 1.161zm0 0"/><path data-name="Trazado 156" d="M18.583 53.416h-8.13a1.161 1.161 0 0 1 0-2.323h8.131a1.161 1.161 0 0 1 0 2.323zm0 0"/><path data-name="Trazado 157" d="M41.81 53.423h-6.968a1.161 1.161 0 0 1 0-2.323h6.968a1.161 1.161 0 1 1 0 2.323zm0 0"/><path data-name="Trazado 158" d="M1.163 70.838a1.161 1.161 0 0 1-1.161-1.161v-8.128a1.161 1.161 0 0 1 2.323 0v8.128a1.161 1.161 0 0 1-1.161 1.161zm0 0"/><path data-name="Trazado 159" d="M2.324 71.999a2.325 2.325 0 0 1-2.323-2.323 1.161 1.161 0 0 1 2.323 0 1.16 1.16 0 1 1 0 2.32zm0 0"/><path data-name="Trazado 160" d="M51.102 71.999a1.161 1.161 0 0 1 0-2.323 1.16 1.16 0 1 1 2.32 0 2.325 2.325 0 0 1-2.32 2.323zm0 0"/><path data-name="Trazado 161" d="M52.263 70.839a1.161 1.161 0 0 1-1.161-1.161V61.55a1.161 1.161 0 1 1 2.323 0v8.127a1.16 1.16 0 0 1-1.162 1.162zm0 0"/><path data-name="Trazado 162" d="M51.103 72.004H2.324a1.161 1.161 0 0 1 0-2.323h48.779a1.161 1.161 0 0 1 0 2.323zm0 0"/><path data-name="Trazado 163" d="M18.583 53.42a1.161 1.161 0 0 1-1.161-1.161v-5.493a1.161 1.161 0 0 1 2.323 0v5.49a1.16 1.16 0 0 1-1.162 1.164zm0 0"/><path data-name="Trazado 164" d="M34.842 53.418a1.161 1.161 0 0 1-1.161-1.161v-5.495a1.161 1.161 0 0 1 2.323 0v5.492a1.16 1.16 0 0 1-1.162 1.164zm0 0"/><path data-name="Trazado 165" d="M26.713 49.936A18.6 18.6 0 0 1 8.131 31.354a1.161 1.161 0 0 1 2.323 0 16.259 16.259 0 1 0 32.518 0 1.161 1.161 0 0 1 2.323 0 18.6 18.6 0 0 1-18.582 18.582zm0 0"/><path data-name="Trazado 166" d="M9.293 32.516a1.161 1.161 0 0 1-1.161-1.161v-6.668a1.161 1.161 0 0 1 2.323 0v6.668a1.16 1.16 0 0 1-1.162 1.161zm0 0"/><path data-name="Trazado 167" d="M44.133 32.516a1.161 1.161 0 0 1-1.161-1.161v-6.661a1.161 1.161 0 1 1 2.323 0v6.661a1.16 1.16 0 0 1-1.162 1.161zm0 0"/><path data-name="Trazado 168" d="M22.067 55.741a1.166 1.166 0 0 1-.643-.2l-3.484-2.32a1.162 1.162 0 1 1 1.289-1.933l3.484 2.32a1.162 1.162 0 0 1-.646 2.128zm0 0"/><path data-name="Trazado 169" d="M22.066 55.74a1.161 1.161 0 0 1-.28-2.288l4.645-1.16a1.161 1.161 0 1 1 .562 2.253l-4.645 1.16a1.181 1.181 0 0 1-.282.035zm0 0"/><path data-name="Trazado 170" d="M31.359 55.741a1.161 1.161 0 0 1-.645-2.128l3.484-2.32a1.162 1.162 0 0 1 1.289 1.933l-3.484 2.32a1.167 1.167 0 0 1-.644.195zm0 0"/><path data-name="Trazado 171" d="M31.359 55.74a1.182 1.182 0 0 1-.282-.035l-4.645-1.16a1.161 1.161 0 1 1 .562-2.253l4.645 1.16a1.161 1.161 0 0 1-.28 2.288zm0 0"/><path data-name="Trazado 174" d="M26.713 31.366c-16.752 0-18.408-6.062-18.541-6.753a1.161 1.161 0 0 1 2.273-.474c.049.16 1.648 4.905 16.268 4.905 14.8 0 16.293-4.865 16.307-4.915a1.179 1.179 0 0 1 1.392-.847 1.144 1.144 0 0 1 .878 1.337c-.137.69-1.829 6.746-18.576 6.746zm0 0"/><path data-name="Trazado 175" d="M44.151 25.553H9.312a1.161 1.161 0 1 1 0-2.323h34.839a1.161 1.161 0 1 1 0 2.323zm0 0"/><path data-name="Trazado 176" d="M44.151 19.746H9.312a1.161 1.161 0 1 1 0-2.323h34.839a1.161 1.161 0 1 1 0 2.323zm0 0"/><path data-name="Trazado 177" d="M9.312 25.553a1.16 1.16 0 0 1-1.161-1.161v-5.808a1.161 1.161 0 0 1 2.323 0v5.808a1.161 1.161 0 0 1-1.162 1.161zm0 0"/><path data-name="Trazado 178" d="M44.151 25.553a1.16 1.16 0 0 1-1.161-1.161v-5.808a1.161 1.161 0 0 1 2.323 0v5.808a1.161 1.161 0 0 1-1.162 1.161zm0 0"/><path data-name="Trazado 179" d="M44.15 19.745a1.147 1.147 0 0 1-.593-.164 1.162 1.162 0 0 1-.4-1.592l3.463-5.812a1.163 1.163 0 1 1 2 1.188l-3.463 5.812a1.159 1.159 0 0 1-1 .568zm0 0"/><path data-name="Trazado 180" d="M47.615 13.932a1.159 1.159 0 0 1-.969-.519l-4.622-6.966a1.161 1.161 0 0 1 1.935-1.284l4.622 6.966a1.161 1.161 0 0 1-.966 1.8zm0 0"/><path data-name="Trazado 181" d="M42.993 6.967a1.208 1.208 0 0 1-.319-.044L26.395 2.277a1.162 1.162 0 1 1 .637-2.234L43.31 4.69a1.161 1.161 0 0 1-.317 2.278zm0 0"/><path data-name="Trazado 182" d="M9.295 19.745a1.16 1.16 0 0 1-1-.567l-3.463-5.813a1.163 1.163 0 0 1 2-1.188l3.463 5.812a1.161 1.161 0 0 1-1 1.755zm0 0"/><path data-name="Trazado 183" d="M5.824 13.932a1.162 1.162 0 0 1-.966-1.8L9.48 5.166a1.164 1.164 0 0 1 1.944 1.281l-4.622 6.966a1.16 1.16 0 0 1-.969.519zm0 0"/><path data-name="Trazado 184" d="M10.452 6.967a1.161 1.161 0 0 1-.317-2.278L26.409.042a1.162 1.162 0 0 1 .636 2.234L10.771 6.923a1.2 1.2 0 0 1-.319.044zm0 0"/><path data-name="Trazado 185" d="M26.731 15.094a4.645 4.645 0 1 1 4.645-4.645 4.65 4.65 0 0 1-4.645 4.645zm0-6.968a2.323 2.323 0 1 0 2.323 2.323 2.325 2.325 0 0 0-2.323-2.326zm0 0"/><path data-name="Trazado 186" d="M25.57 59.225a1.159 1.159 0 0 1-.819-.338l-3.5-3.484a1.161 1.161 0 1 1 1.637-1.647l3.5 3.484a1.162 1.162 0 0 1-.819 1.985zm0 0"/><path data-name="Trazado 187" d="M27.893 59.225a1.161 1.161 0 0 1-.823-1.98l3.465-3.484a1.161 1.161 0 0 1 1.647 1.637l-3.465 3.484a1.162 1.162 0 0 1-.824.343zm0 0"/><path data-name="Trazado 188" d="M27.893 59.229H25.57a1.161 1.161 0 0 1 0-2.323h2.323a1.161 1.161 0 0 1 0 2.323zm0 0"/><path data-name="Trazado 189" d="M23.25 72a1.189 1.189 0 0 1-.209-.019 1.162 1.162 0 0 1-.935-1.351l2.32-12.775a1.162 1.162 0 1 1 2.286.415l-2.323 12.775A1.16 1.16 0 0 1 23.25 72zm0 0"/><path data-name="Trazado 190" d="M30.195 71.999a1.161 1.161 0 0 1-1.142-.955l-2.3-12.775a1.162 1.162 0 1 1 2.286-.412l2.3 12.775a1.164 1.164 0 0 1-.937 1.35 1.31 1.31 0 0 1-.207.017zm0 0"/></g></svg>