<svg xmlns="http://www.w3.org/2000/svg" width="69.479" height="70"><g fill="#11304c"><path d="M67.794 6.345a17.212 17.212 0 0 0-6.8-5.091c-4.613-1.886-9.859-1.643-15.591.722-9.855 4.066-13.241 13.447-14.353 16.53a25.162 25.162 0 0 0-1.371 7.071A9.871 9.871 0 0 0 28.4 27.96a11.4 11.4 0 0 1-2.394-1.612 16.926 16.926 0 0 1-2.664-4.133c-1.932-3.588-4.336-8.053-8.58-9.949a10.129 10.129 0 0 0-8.01-.24 10.093 10.093 0 0 0-5.408 4.741 17.219 17.219 0 0 0-1.252 8.4c.532 4.959 3.236 9.461 8.043 13.383a24.313 24.313 0 0 0 15.656 5.263 37.168 37.168 0 0 0 5.708-.479 25.175 25.175 0 0 0 6.867-2.148 9.808 9.808 0 0 0 3.336-.117 11.393 11.393 0 0 1-.1 2.885 16.912 16.912 0 0 1-2.09 4.449c-2.017 3.54-4.526 7.946-3.885 12.549a10.13 10.13 0 0 0 4.047 6.919A10.693 10.693 0 0 0 43.719 70a5.375 5.375 0 0 0 .838-.061 17.213 17.213 0 0 0 7.787-3.391c3.921-3.079 6.3-7.759 7.081-13.911 1.338-10.585-5.143-18.159-7.272-20.648a25.141 25.141 0 0 0-5.466-4.689 9.911 9.911 0 0 0-1.593-2.457 11.413 11.413 0 0 1 2.561-1.343 16.929 16.929 0 0 1 4.9-.382c4.069 0 9.145.006 12.829-2.827a10.132 10.132 0 0 0 4.014-6.939 10.086 10.086 0 0 0-1.604-7.007zM29.251 41.7c-3.062.458-12.38 1.851-20.077-4.431C-.704 29.207 1.469 20.7 2.862 17.413a8.442 8.442 0 0 1 4.493-3.85 8.513 8.513 0 0 1 6.734.21c3.731 1.667 5.988 5.858 7.8 9.225a17.492 17.492 0 0 0 3.032 4.594 13.071 13.071 0 0 0 3.035 1.986 9.878 9.878 0 0 0 5.842 10.9 22.094 22.094 0 0 1-4.547 1.222zm.186-10.32a8.243 8.243 0 1 1 8.243 8.243 8.253 8.253 0 0 1-8.245-8.239zm21.461 1.68c2.012 2.352 8.136 9.509 6.89 19.37-1.6 12.653-9.967 15.321-13.49 15.881a8.753 8.753 0 0 1-9.039-7.587c-.564-4.047 1.791-8.183 3.684-11.505a17.477 17.477 0 0 0 2.286-5.005 12.851 12.851 0 0 0 .075-3.628 9.89 9.89 0 0 0 6.149-10.733 22.021 22.021 0 0 1 3.445 3.207zm16.865-19.906a8.516 8.516 0 0 1-3.382 5.83c-3.239 2.492-8 2.491-11.823 2.485a17.5 17.5 0 0 0-5.482.487 13.079 13.079 0 0 0-3.192 1.731 9.864 9.864 0 0 0-12.369-.031 22.088 22.088 0 0 1 1.085-4.59C33.652 16.153 36.851 7.288 46.035 3.5c11.786-4.865 18.243 1.089 20.471 3.875a8.435 8.435 0 0 1 1.257 5.779z"/><path d="M37.68 26.046a5.334 5.334 0 1 0 5.334 5.334 5.34 5.34 0 0 0-5.334-5.334zm0 9.019a3.685 3.685 0 1 1 3.685-3.685 3.689 3.689 0 0 1-3.685 3.689z"/></g></svg>