<svg xmlns="http://www.w3.org/2000/svg" width="45.501" height="70"><path d="M32.672 0H14.001a1.167 1.167 0 0 0-1.167 1.167v1.166h-3.5A1.167 1.167 0 0 0 8.172 3.5v7a1.167 1.167 0 0 0 1.167 1.167h3.5v.891l-4.544 9.087a1.167 1.167 0 0 0 1.044 1.688h4.667a1.167 1.167 0 0 0 1.044-.645L19.388 14H24.5v2.333h-1.167a1.167 1.167 0 0 0-1.161 1.167v6.517l-12.3 12.291a5.8 5.8 0 0 0-1.7 4.125v23.734A5.84 5.84 0 0 0 14.001 70h21a5.84 5.84 0 0 0 5.833-5.833V17.5a1.167 1.167 0 0 0-1.167-1.167H38.5V14h5.833a1.167 1.167 0 0 0 1.167-1.167A12.847 12.847 0 0 0 32.672 0zM10.501 9.333V4.667h2.333v4.666zM13.28 21h-2.058l3.5-7h2.058zm25.221 43.167a3.5 3.5 0 0 1-3.5 3.5h-21a3.5 3.5 0 0 1-3.5-3.5V40.433a3.479 3.479 0 0 1 1.024-2.476l5.292-5.291h21.684zm0-33.833h-19.35l4.667-4.667h14.684zm0-7h-14v-4.667h14zm-11.667-7V14h9.338v2.333zm10.5-4.667H15.172V2.333h17.5a10.515 10.515 0 0 1 10.436 9.333zM0 5.833h5.833v2.333H0zm.645-3.622L1.688.124l4.667 2.333L5.31 4.544zm0 9.578l4.666-2.333 1.044 2.087-4.667 2.333z" fill="#11304c"/></svg>