<svg xmlns="http://www.w3.org/2000/svg" width="72.647" height="72.203"><g fill="none" stroke="#11304c" stroke-width="2"><path d="M11.852 18.321a6.85 6.85 0 0 0 .4-.213 2.243 2.243 0 0 0 .216.249l7.589 7.591a2.519 2.519 0 0 1 2.657-.8l.946.281.589-1.981-8.435-8.437a2.377 2.377 0 0 0-.433-.339l.02-.087a2.136 2.136 0 0 1 .07-.21c.019-.052.04-.106.059-.163s.049-.114.073-.175c.042-.1.086-.212.144-.324l.158-.322.18-.319a4.249 4.249 0 0 1 .26-.419c.053-.077.105-.157.159-.238.047-.063.1-.128.146-.195a5.7 5.7 0 0 1 .362-.449l.087-.1a5.312 5.312 0 0 1 .521-.524l.155-.139c.065-.06.13-.122.2-.177l.37-.269a.138.138 0 0 0 .029-.023 3.777 3.777 0 0 1 .515-.324c.076-.041.15-.083.224-.127a2.844 2.844 0 0 1 .5-.237l.262-.11c.051-.02.1-.043.153-.066a1.252 1.252 0 0 1 .165-.064l.407-.114c.081-.02.175-.047.269-.074a2.8 2.8 0 0 1 .346-.087l1.088-.159a.726.726 0 0 0 .407-.2.722.722 0 0 0-.309-1.2l-1.073-.305a4.057 4.057 0 0 0-.576-.113l-.264-.041-.47-.073a2.85 2.85 0 0 0-.408-.03l-.148-.005c-.123 0-.212-.007-.3-.011a5.219 5.219 0 0 0-.912.019l-.208.017a6.8 6.8 0 0 0-1.037.142l-.58.117a7.53 7.53 0 0 0-.477.137l-.183.056a9.926 9.926 0 0 0-1.2.445l-.053.022c-.329.137-.629.3-.918.45l-.24.128c-.017.008-.03.018-.046.027-.093.058-.188.115-.28.171-.25.152-.511.309-.752.487l-.4.286-.058.044-.404.318a6.102 6.102 0 0 0-.3.249 3.575 3.575 0 0 0-1.953 1l-.847.851a5.951 5.951 0 0 0-1.061 1.557c-1.333-.257-3.139 1.712-5.839 4.409l6.031 6.028c2.069-2.068 4.669-4.505 4.407-5.838zm47.294-.374l3.8.735c4.574-5.769 2.843-3.667 1.132-3.449h-6.152z"/><path d="M24.664 19.182l1.173-3.949h-5.12z"/><path d="M69.791 39.79V25.157c-.1.141-.2.283-.314.42a12.746 12.746 0 0 1-6.066 4.219h.668v9.995h-15.3l7.171-9.777a6.245 6.245 0 0 0 .361-.515A10.828 10.828 0 0 0 69.57 16.826a.935.935 0 0 0-1.649-.395l-4.622 5.836-6.009-1.163-2.509-5.585 4.624-5.836a.936.936 0 0 0-.76-1.516 10.829 10.829 0 0 0-9.308 15.8c-.143.151-.283.31-.418.48L39.64 35.488l2.246 2.246a4.709 4.709 0 0 1 1.206 2.055h-1a3.749 3.749 0 0 0-.878-1.382L28.439 25.632l-.328 1.114.866.258a2.54 2.54 0 0 1 1.713 3.16 2.552 2.552 0 0 1-.52.942 4.439 4.439 0 0 1-.16 1.783l-1.151 3.868 3.038 3.036h-5.233l2.256-7.594a3.3 3.3 0 0 0 0-1.907 1.351 1.351 0 0 0-.23-2.5l-2-.6 5.45-18.343.172.051 1.399-2.736.554-4.263-2.354-.698-1.828 3.884-.294 3.065.174.052-5.452 18.344-2.087-.62a1.352 1.352 0 0 0-1.59 1.91 3.316 3.316 0 0 0-1.091 1.633L16.685 39.79h-2.864v-9.994h3.79l.678-2.285a3.21 3.21 0 0 1 .628-1.207l-6.123-6.273a26.988 26.988 0 0 1-2.96 3.635L8.111 25.39v14.4H6.253v19.991a11.424 11.424 0 0 0 11.424 11.422h42.549a11.421 11.421 0 0 0 11.422-11.422V39.79zm-52.366 0h8.416s-8.191-.76-8.417 0z"/><path d="M32.366 15.232l-2.207 7.439 7.127 7.125h3.82l6.354-7.558a12.885 12.885 0 0 1-.638-7.006H32.366z"/></g></svg>