<svg xmlns="http://www.w3.org/2000/svg" width="100.413" height="59"><path data-name="Trazado 47" d="M94.16 23.474l-12.96-4.48-7.507-12.746C71.18 2.288 69.469.995 61.934.995H6.255A5.255 5.255 0 0 0 1 6.253v35.7a5.256 5.256 0 0 0 5.255 5.255h2.788a10.994 10.994 0 0 1 21.95 0h37.76a11 11 0 0 1 21.965 0h3.442a5.254 5.254 0 0 0 5.252-5.255V28.729c.001-2.902-2.151-4.235-5.252-5.255zM74.442 20.43H50.5a.645.645 0 0 1-.648-.645V7.07a.645.645 0 0 1 .648-.645h17.145a1.251 1.251 0 0 1 1.145.645l6.3 12.715a.644.644 0 0 1-.648.646zm24.046 16.237a1.756 1.756 0 0 1-1.756 1.757h-5.415a1.756 1.756 0 0 1-1.756-1.757v-3.952a1.756 1.756 0 0 1 1.756-1.756h5.415a1.756 1.756 0 0 1 1.756 1.756zm-78.6 1.362a9.985 9.985 0 1 0 9.984 9.986 10 10 0 0 0-9.986-9.986zm0 16.8a6.815 6.815 0 1 1 6.814-6.815 6.822 6.822 0 0 1-6.816 6.817zm59.888-16.8a9.985 9.985 0 1 0 9.985 9.986 10 10 0 0 0-9.986-9.986zm0 16.8a6.815 6.815 0 1 1 6.815-6.815 6.823 6.823 0 0 1-6.816 6.817z" fill="none" stroke="#11304c" stroke-width="2"/></svg>