<svg xmlns="http://www.w3.org/2000/svg" width="72.012" height="72"><g data-name="warehouse (1)" fill="none" stroke="#11304c" stroke-width="2"><path data-name="Trazado 30" d="M32.397 59.436h-8.451a1.558 1.558 0 0 0-1.558 1.557v8.452a1.558 1.558 0 0 0 1.558 1.557h8.452a1.558 1.558 0 0 0 1.557-1.557v-8.452a1.558 1.558 0 0 0-1.557-1.557zm0 0"/><path data-name="Trazado 31" d="M48.066 59.436h-8.452a1.558 1.558 0 0 0-1.557 1.555v8.452A1.558 1.558 0 0 0 39.614 71h8.452a1.557 1.557 0 0 0 1.557-1.557v-8.452a1.557 1.557 0 0 0-1.557-1.555zm0 0"/><path data-name="Trazado 32" d="M41.79 54.213v-8.451a1.558 1.558 0 0 0-1.558-1.558H31.78a1.557 1.557 0 0 0-1.557 1.557v8.451a1.557 1.557 0 0 0 1.557 1.557h8.452a1.557 1.557 0 0 0 1.558-1.556zm0 0"/><path data-name="Trazado 33" d="M65.684 29.891L37.128 11.22a2.05 2.05 0 0 0-2.245 0L6.328 29.891a2.051 2.051 0 0 0-.929 1.716V68.95a2.051 2.051 0 0 0 2.051 2.051h8.786a2.051 2.051 0 0 0 2.051-2.051V35.855h35.437v33.1a2.051 2.051 0 0 0 2.051 2.051h8.791a2.051 2.051 0 0 0 2.051-2.051V31.608a2.051 2.051 0 0 0-.929-1.716zm0 0"/><path data-name="Trazado 34" d="M70.966 24.615a2.049 2.049 0 0 0-.873-1.3l-32.95-21.97A2.053 2.053 0 0 0 36.005 1h0a2.049 2.049 0 0 0-1.138.344L1.919 23.311a2.051 2.051 0 0 0-.569 2.844l1.176 1.764a6.167 6.167 0 0 1 1.557-1.461L32.639 7.787a6.155 6.155 0 0 1 6.733 0l28.557 18.671a6.166 6.166 0 0 1 1.557 1.461l1.176-1.764a2.049 2.049 0 0 0 .3-1.54zm0 0"/></g></svg>