<svg xmlns="http://www.w3.org/2000/svg" width="65.585" height="72" viewBox="0 0 65.585 72"><g transform="translate(-19.505 1)"><g transform="translate(20.871)"><path d="M80.611,44.885l-1.154-4.306-8.868,2.376L66.989,35l3.6-7.955,8.868,2.376,1.154-4.306-4.6-1.233,7.712-4.453-2.23-3.861-7.712,4.452,1.232-4.6-4.307-1.153-2.376,8.868-8.688-.861-5.09-7.093,6.493-6.492L57.893,5.538,54.526,8.905V0H50.068V8.905L46.7,5.538,43.548,8.691l6.493,6.492-5.09,7.093-8.688.861-2.376-8.868L29.58,15.422l1.232,4.6L23.1,15.57,20.871,19.43l7.712,4.453-4.6,1.233,1.154,4.306,8.868-2.376L37.6,35l-3.6,7.954-8.868-2.377-1.154,4.306,4.6,1.232L20.871,50.57,23.1,54.431l7.712-4.452-1.232,4.6,4.307,1.154,2.376-8.869,8.688.861,5.09,7.094-6.492,6.492L46.7,64.462,50.068,61.1V70h4.459V61.095l3.367,3.367,3.153-3.153-6.493-6.492,5.09-7.094,8.688-.861,2.376,8.869,4.307-1.154-1.232-4.6,7.712,4.452,2.23-3.861-7.712-4.453ZM38.439,35l2.35-4.07L47.838,35l-7.049,4.07ZM50.068,47h-4.7l-2.35-4.07,7.049-4.07V47Zm0-15.862-7.049-4.07L45.368,23h4.7v8.14ZM54.526,23h4.7l2.35,4.07-7.049,4.07Zm4.7,24h-4.7v-8.14l7.049,4.07Zm4.579-7.931L56.756,35l7.049-4.07L66.155,35Z" transform="translate(-20.871)" fill="none" stroke="#11304c" stroke-width="2"/></g></g></svg>