<svg xmlns="http://www.w3.org/2000/svg" width="100.541" height="72" viewBox="0 0 100.541 72">
  <g id="hotel-bell" transform="translate(1.041 -73)">
    <path id="Trazado_196" data-name="Trazado 196" d="M.655,376.382l-.239.746a8.511,8.511,0,0,0,8.1,11.111H89.939a8.511,8.511,0,0,0,8.1-11.111l-.239-.746Z" transform="translate(0 -244.239)" fill="none" stroke="#11304c" stroke-width="2"/>
    <path id="Trazado_197" data-name="Trazado 197" d="M106.474,126.375l-.919-2.865a8.481,8.481,0,0,0-5.621-5.544,40.994,40.994,0,0,0-37.3-32.79V79.769h5.595a2.884,2.884,0,1,0,0-5.769H51.271a2.884,2.884,0,0,0,0,5.769h5.595v5.407a40.994,40.994,0,0,0-37.3,32.79,8.481,8.481,0,0,0-5.621,5.544l-.919,2.865h93.449Z" transform="translate(-10.52 0)" fill="none" stroke="#11304c" stroke-width="2"/>
  </g>
</svg>
