<svg xmlns="http://www.w3.org/2000/svg" width="70" height="70" viewBox="0 0 70 70"><path d="M0,0H70V70H0Z" fill="rgba(0,0,0,0)"/><path d="M49.52,56.815a17.9,17.9,0,0,1-10.559-3.684,17.366,17.366,0,0,1-21.118,0A17.9,17.9,0,0,1,7.283,56.815H2V62.4h5.28a22.3,22.3,0,0,0,10.559-2.763,22,22,0,0,0,21.118,0A21.981,21.981,0,0,0,49.52,62.4H54.8V56.815ZM7.151,51.233h.132c4.224,0,7.972-2.456,10.559-5.581,2.587,3.126,6.336,5.581,10.559,5.581s7.972-2.456,10.559-5.581c2.587,3.126,6.336,5.581,10.559,5.581h.132l4.989-18.642a3.092,3.092,0,0,0-.158-2.177,2.672,2.672,0,0,0-1.584-1.4L49.52,27.847V14.954a5.453,5.453,0,0,0-5.28-5.581H36.321V1H20.482V9.372H12.563a5.453,5.453,0,0,0-5.28,5.581V27.847L3.878,29.019a2.672,2.672,0,0,0-1.584,1.4,2.955,2.955,0,0,0-.158,2.177Zm5.412-36.279H44.241V26.033L28.4,20.535l-15.839,5.5Z" transform="translate(6.596 3.302)" fill="none" stroke="#11304c" stroke-width="2"/></svg>