<svg xmlns="http://www.w3.org/2000/svg" width="65.423" height="70" viewBox="0 0 65.423 70"><g transform="translate(-12.749)"><path d="M36.561,44.692l-.5,4.7A1.346,1.346,0,0,0,37.4,50.885H51.636A1.346,1.346,0,0,0,52.974,49.4l-.5-4.7h17.73a5.01,5.01,0,0,0,5-5V5a5.01,5.01,0,0,0-5-5H17.754a5.01,5.01,0,0,0-5,5V39.688a5.01,5.01,0,0,0,5,5H36.561Zm13.579,3.5H38.9l.37-3.5h10.5ZM17.754,2.692H70.206A2.315,2.315,0,0,1,72.518,5V35.538H15.441V5A2.315,2.315,0,0,1,17.754,2.692Zm-2.312,37V38.231H72.518v1.457A2.315,2.315,0,0,1,70.206,42H17.754A2.315,2.315,0,0,1,15.441,39.688Z" transform="translate(0)" fill="#11304c"/><path d="M92.322,301.145a1.346,1.346,0,0,0,.044-1.32l-2.659-5.115a1.346,1.346,0,0,0-1.195-.725H43.753a1.346,1.346,0,0,0-1.195.725L39.9,299.825a1.346,1.346,0,0,0,1.195,1.967H91.171A1.346,1.346,0,0,0,92.322,301.145ZM43.311,299.1l1.259-2.423H87.695l1.26,2.423Z" transform="translate(-22.153 -241.215)" fill="#11304c"/><path d="M310.042,350.982h-2.154a5.66,5.66,0,0,0-5.654,5.654,1.346,1.346,0,0,0,1.346,1.346h10.769a1.346,1.346,0,0,0,1.346-1.346A5.66,5.66,0,0,0,310.042,350.982Zm-4.791,4.308a2.965,2.965,0,0,1,2.637-1.615h2.154a2.965,2.965,0,0,1,2.638,1.615Z" transform="translate(-237.524 -287.982)" fill="#11304c"/></g></svg>