<svg xmlns="http://www.w3.org/2000/svg" width="83.777" height="72.095" viewBox="0 0 83.777 72.095"><g transform="translate(1 1)"><path d="M120.952,96H89.993L84.5,111.1a1.46,1.46,0,0,1-1.373.964H64v35.047a1.46,1.46,0,0,0,1.46,1.46h30.93l4.059-12.15a1.447,1.447,0,0,1,1.373-.993h20.591V97.46a1.46,1.46,0,0,0-1.46-1.46Zm-48.19,46.73H69.841v-2.921h2.921Zm0-7.3H69.841v-2.921h2.921Zm0-7.3H69.841v-2.921h2.921Zm0-7.3H69.841V117.9h2.921Zm11.682,21.9H75.682v-2.921h8.762Zm0-7.3H75.682v-2.921h8.762Zm0-7.3H75.682v-2.921h8.762Zm0-7.3H75.682V117.9h8.762Zm5.841,21.9H87.364v-2.921h2.921Zm0-7.3H87.364v-2.921h2.921Zm0-7.3H87.364v-2.921h2.921Zm0-7.3H87.364V117.9h2.921Zm27.409-9.287-14.6,17.524a1.461,1.461,0,0,1-2.508-1.4l3.738-11.221H99.047a1.46,1.46,0,0,1-1.342-2.036l4.381-10.222a1.46,1.46,0,0,1,1.342-.885h7.3a1.46,1.46,0,0,1,1.314,2.113l-1.872,3.729h6.4a1.46,1.46,0,0,1,1.123,2.4Zm0,0" transform="translate(-52.317 -78.476)" fill="none" stroke="#11304c" stroke-width="2"/><path d="M32,280h2.921v2.921H32Zm0,0" transform="translate(-26.159 -228.889)" fill="none" stroke="#11304c" stroke-width="2"/><path d="M1.46,200H0v32.127H1.46a1.46,1.46,0,0,0,1.46-1.46V201.46A1.46,1.46,0,0,0,1.46,200Zm0,0" transform="translate(0 -163.492)" fill="none" stroke="#11304c" stroke-width="2"/><path d="M162.86,0l-3.9,5.841H206.07L202.171,0Zm0,0" transform="translate(-129.944)" fill="none" stroke="#11304c" stroke-width="2"/><path d="M280,48h4.381v5.841H280Zm0,0" transform="translate(-228.889 -39.238)" fill="none" stroke="#11304c" stroke-width="2"/><path d="M433.46,120a1.46,1.46,0,0,0-1.46,1.46v29.206a1.46,1.46,0,0,0,1.46,1.46h1.46V120Zm0,0" transform="translate(-353.143 -98.095)" fill="none" stroke="#11304c" stroke-width="2"/><path d="M271.68,330.921H286.9l1.46-2.921H272.644Zm0,0" transform="translate(-222.088 -268.127)" fill="none" stroke="#11304c" stroke-width="2"/><path d="M400,200h2.921v2.921H400Zm0,0" transform="translate(-326.984 -163.492)" fill="none" stroke="#11304c" stroke-width="2"/><path d="M102.779,152H90.191L88,154.921h13.727Zm0,0" transform="translate(-71.937 -124.254)" fill="none" stroke="#11304c" stroke-width="2"/></g></svg>