<svg xmlns="http://www.w3.org/2000/svg" width="41.75" height="72" viewBox="0 0 41.75 72">
  <g id="flash" transform="translate(-109.878 1)">
    <g id="Grupo_24" data-name="Grupo 24" transform="translate(110.933)">
      <path id="Trazado_44" data-name="Trazado 44" d="M150.491,24.008a1.166,1.166,0,0,0-1.057-.674H135.609L149.253,1.791A1.167,1.167,0,0,0,148.267,0H129.6a1.168,1.168,0,0,0-1.044.645l-17.5,35a1.167,1.167,0,0,0,1.044,1.688h12L111.025,68.381a1.167,1.167,0,0,0,1.968,1.205l37.333-44.333A1.168,1.168,0,0,0,150.491,24.008Z" transform="translate(-110.933)" fill="none" stroke="#11304c" stroke-width="2"/>
    </g>
  </g>
</svg>
