<svg xmlns="http://www.w3.org/2000/svg" width="56.949" height="70" viewBox="0 0 56.949 70"><g transform="translate(-5.5)"><path d="M29.686,57.525a1.186,1.186,0,0,0,1.186-1.186V17.186a1.186,1.186,0,1,0-2.373,0V56.339A1.186,1.186,0,0,0,29.686,57.525Z" transform="translate(4.288 2.983)" fill="#11304c"/><path d="M19.686,57.525a1.186,1.186,0,0,0,1.186-1.186V17.186a1.186,1.186,0,1,0-2.373,0V56.339A1.186,1.186,0,0,0,19.686,57.525Z" transform="translate(2.424 2.983)" fill="#11304c"/><path d="M39.686,57.525a1.186,1.186,0,0,0,1.186-1.186V17.186a1.186,1.186,0,1,0-2.373,0V56.339A1.186,1.186,0,0,0,39.686,57.525Z" transform="translate(6.153 2.983)" fill="#11304c"/><path d="M61.263,7.119H44.6a9.43,9.43,0,0,0-2.151-5.589A5.019,5.019,0,0,0,38.719,0H26.856a5.019,5.019,0,0,0-3.73,1.529,9.43,9.43,0,0,0-2.151,5.589H6.686a1.186,1.186,0,0,0,0,2.373H9.108l2.272,54.6C11.424,66.136,12.7,70,17.2,70H50.746c4.507,0,5.779-3.864,5.822-5.882L58.841,9.492h2.422a1.186,1.186,0,1,0,0-2.373ZM24.829,3.181a2.69,2.69,0,0,1,2.026-.808H38.719a2.69,2.69,0,0,1,2.026.808,6.982,6.982,0,0,1,1.471,3.938H23.359A6.989,6.989,0,0,1,24.829,3.181ZM54.2,64.043c-.007.367-.171,3.584-3.45,3.584H17.2c-3.244,0-3.438-3.224-3.451-3.609L11.482,9.492H56.466Z" fill="#11304c"/></g></svg>