<svg xmlns="http://www.w3.org/2000/svg" width="70.978" height="71.421" viewBox="0 0 70.978 71.421">
  <g id="baseline-local_gas_station-24px" transform="translate(0 0.421)">
    <path id="Trazado_15" data-name="Trazado 15" d="M0,0H65.831V65.831H0Z" fill="rgba(0,0,0,0)"/>
    <path id="Trazado_16" data-name="Trazado 16" d="M66.918,19.314l.04-.039L52.116,4.928,47.887,9.017l8.418,8.138a9.629,9.629,0,0,0-6.423,8.986,9.816,9.816,0,0,0,9.974,9.642,10.5,10.5,0,0,0,3.99-.81V62.779a3.992,3.992,0,0,1-7.979,0V45.424a7.873,7.873,0,0,0-7.979-7.713H43.9v-27A7.873,7.873,0,0,0,35.918,3H11.979A7.873,7.873,0,0,0,4,10.713V72.421H43.9V43.5h5.985V62.779a9.98,9.98,0,0,0,19.949,0V26.14A9.49,9.49,0,0,0,66.918,19.314ZM35.918,30H11.979V10.713H35.918Zm23.938,0a3.859,3.859,0,1,1,3.99-3.857A3.936,3.936,0,0,1,59.856,30Z" transform="translate(0.148 -2.421)" fill="none" stroke="#11304c" stroke-width="2"/>
  </g>
</svg>
