<svg xmlns="http://www.w3.org/2000/svg" width="72.736" height="70" viewBox="0 0 72.736 70"><g transform="translate(0 -8.324)"><path d="M50.994,84.416l-5.446,3.137a2.232,2.232,0,0,0-.819,3.044l3.137,5.445A1.643,1.643,0,0,0,50.714,94.4l-2.608-4.528,4.529-2.609a1.644,1.644,0,1,0-1.641-2.848Z" transform="translate(-37.13 -63.402)" fill="#11304c"/><path d="M72.244,37.663,60.207,15.824a3.971,3.971,0,0,0-5.389-1.559L36.962,24.106l-7.947-13.8A3.972,3.972,0,0,0,23.6,8.853L1.989,21.3A3.967,3.967,0,0,0,.531,26.718L12.978,48.326A3.969,3.969,0,0,0,18.4,49.783l1.727-.995-6.342,9.383a3.967,3.967,0,0,0,1.066,5.508l20.66,13.964a3.966,3.966,0,0,0,5.508-1.065l13.964-20.66a3.971,3.971,0,0,0,.109-4.269l15.6-8.6A3.972,3.972,0,0,0,72.244,37.663ZM16.756,46.935a.681.681,0,0,1-.929-.25L3.38,25.077a.681.681,0,0,1,.25-.929L25.238,11.7a.681.681,0,0,1,.929.25l7.916,13.742-1.1.609a3.967,3.967,0,0,0-1.559,5.389l2.843,5.16-.222.128-.787-.532a3.967,3.967,0,0,0-5.508,1.065l-3.423,5.065Zm35.5,7.142L38.292,74.737a.682.682,0,0,1-.566.3.666.666,0,0,1-.379-.117L16.687,60.956a.68.68,0,0,1-.183-.944L30.469,39.351a.681.681,0,0,1,.566-.3.666.666,0,0,1,.379.117l20.66,13.964A.681.681,0,0,1,52.256,54.077ZM69.1,40.173,52.392,49.381l-11.9-8.046L34.3,30.1a.679.679,0,0,1,.267-.924L56.4,17.143a.68.68,0,0,1,.924.267L69.365,39.25A.681.681,0,0,1,69.1,40.173Z" transform="translate(0 0)" fill="#11304c"/><path d="M300.538,86.884a2.233,2.233,0,0,0-3.028-.876l-5.5,3.033a1.644,1.644,0,1,0,1.587,2.879L298.17,89.4l2.523,4.577a1.644,1.644,0,0,0,2.879-1.587Z" transform="translate(-243.303 -64.686)" fill="#11304c"/><path d="M132.323,283.791l-4.33-2.926,2.927-4.33a1.644,1.644,0,1,0-2.724-1.841l-3.519,5.206a2.232,2.232,0,0,0,.6,3.1l5.207,3.518a1.644,1.644,0,1,0,1.841-2.723Z" transform="translate(-103.867 -221.986)" fill="#11304c"/></g></svg>