<svg xmlns="http://www.w3.org/2000/svg" width="54.06" height="62.114" viewBox="0 0 54.06 62.114">
  <g id="Grupo_30" data-name="Grupo 30" transform="translate(-111.974 -2780)">
    <path id="anchor" d="M52.259,36.359l-5-6a1.032,1.032,0,0,0-1.54,0l-5,6a1,1,0,0,0,.77,1.64h1.59C41.6,44.03,36.238,48.68,29.487,49.76V24h9a1,1,0,0,0,1-1V19a1,1,0,0,0-1-1h-9v-2.58a8,8,0,1,0-6,0V18h-9a1,1,0,0,0-1,1v4a1,1,0,0,0,1,1h9V49.76C16.736,48.68,11.376,44.03,9.9,38h1.59a1,1,0,0,0,.77-1.64l-5-6a1.032,1.032,0,0,0-1.54,0l-5,6A1,1,0,0,0,1.485,38H3.716c1.46,9.3,9.57,16.611,19.771,17.822V57a1.035,1.035,0,0,0,.29.71l2,2a1.015,1.015,0,0,0,1.421,0l2-2a1.032,1.032,0,0,0,.29-.71v-1.18C39.688,54.61,47.8,47.3,49.258,38h2.23a1,1,0,0,0,.77-1.64ZM26.487,11a3,3,0,1,1,3-3A3,3,0,0,1,26.487,11Zm0,0" transform="translate(112.516 2781)" fill="none" stroke="#11304c" stroke-width="2"/>
  </g>
</svg>
