<svg xmlns="http://www.w3.org/2000/svg" width="62.731" height="72.123" viewBox="0 0 62.731 72.123"><g transform="translate(-111.972 -2780)"><path d="M60.888,42.418l-5.834-7a1.2,1.2,0,0,0-1.8,0l-5.834,7a1.166,1.166,0,0,0,.9,1.914h1.856C48.451,51.368,42.2,56.793,34.321,58.053V28h10.5a1.166,1.166,0,0,0,1.167-1.167V22.164A1.166,1.166,0,0,0,44.822,21h-10.5v-3.01a9.334,9.334,0,1,0-7,0V21H16.82a1.167,1.167,0,0,0-1.167,1.167v4.667A1.167,1.167,0,0,0,16.82,28h10.5V58.053c-7.876-1.26-14.129-6.685-15.856-13.721H13.32a1.166,1.166,0,0,0,.9-1.914l-5.834-7a1.2,1.2,0,0,0-1.8,0l-5.834,7a1.166,1.166,0,0,0,.9,1.914h2.6C5.958,55.183,15.42,63.711,27.32,65.124V66.5a1.208,1.208,0,0,0,.338.828l2.333,2.333a1.184,1.184,0,0,0,1.657,0l2.333-2.333a1.2,1.2,0,0,0,.338-.828V65.124c11.9-1.412,21.363-9.941,23.066-20.792h2.6a1.166,1.166,0,0,0,.9-1.914ZM30.821,12.83a3.5,3.5,0,1,1,3.5-3.5A3.5,3.5,0,0,1,30.821,12.83Zm0,0" transform="translate(112.516 2781)" fill="none" stroke="#11304c" stroke-width="2"/></g></svg>