<svg xmlns="http://www.w3.org/2000/svg" width="53.425" height="72" viewBox="0 0 53.425 72">
  <g id="avatar" transform="translate(-0.484 -0.002)">
    <path id="Trazado_154" data-name="Trazado 154" d="M1.646,363.594a1.161,1.161,0,0,1-1.161-1.161A10.463,10.463,0,0,1,10.937,351.98a1.161,1.161,0,0,1,0,2.323,8.14,8.14,0,0,0-8.129,8.129,1.16,1.16,0,0,1-1.161,1.161Zm0,0" transform="translate(0 -300.882)" fill="#11304c"/>
    <path id="Trazado_155" data-name="Trazado 155" d="M292.107,363.6a1.161,1.161,0,0,1-1.161-1.161c0-4.578-4.995-8.129-9.292-8.129a1.161,1.161,0,0,1,0-2.323c5.483,0,11.615,4.47,11.615,10.452A1.16,1.16,0,0,1,292.107,363.6Zm0,0" transform="translate(-239.359 -300.889)" fill="#11304c"/>
    <path id="Trazado_156" data-name="Trazado 156" d="M73.776,354.3H65.646a1.161,1.161,0,0,1,0-2.323h8.131a1.161,1.161,0,0,1,0,2.323Zm0,0" transform="translate(-54.709 -300.882)" fill="#11304c"/>
    <path id="Trazado_157" data-name="Trazado 157" d="M240.621,354.3l-6.968,0a1.161,1.161,0,0,1,0-2.323l6.968,0a1.161,1.161,0,1,1,0,2.323Zm0,0" transform="translate(-198.327 -300.875)" fill="#11304c"/>
    <path id="Trazado_158" data-name="Trazado 158" d="M1.647,426.432a1.161,1.161,0,0,1-1.161-1.161v-8.128a1.161,1.161,0,0,1,2.323,0v8.128a1.161,1.161,0,0,1-1.161,1.161Zm0,0" transform="translate(0 -355.592)" fill="#11304c"/>
    <path id="Trazado_159" data-name="Trazado 159" d="M2.815,475.457a2.325,2.325,0,0,1-2.323-2.323,1.161,1.161,0,0,1,2.323,0v0a1.16,1.16,0,1,1,0,2.32Zm0,0" transform="translate(-0.007 -403.456)" fill="#11304c"/>
    <path id="Trazado_160" data-name="Trazado 160" d="M345.661,475.457a1.161,1.161,0,0,1,0-2.323h0a1.16,1.16,0,1,1,2.32,0A2.325,2.325,0,0,1,345.661,475.457Zm0,0" transform="translate(-294.075 -403.456)" fill="#11304c"/>
    <path id="Trazado_161" data-name="Trazado 161" d="M353.661,426.439a1.161,1.161,0,0,1-1.161-1.161V417.15a1.161,1.161,0,1,1,2.323,0v8.127A1.16,1.16,0,0,1,353.661,426.439Zm0,0" transform="translate(-300.914 -355.598)" fill="#11304c"/>
    <path id="Trazado_162" data-name="Trazado 162" d="M58.432,482.3H9.653a1.161,1.161,0,0,1,0-2.323H58.432a1.161,1.161,0,0,1,0,2.323Zm0,0" transform="translate(-6.845 -410.294)" fill="#11304c"/>
    <path id="Trazado_163" data-name="Trazado 163" d="M121.653,321.964a1.161,1.161,0,0,1-1.161-1.161V315.31a1.161,1.161,0,0,1,2.323,0V320.8A1.16,1.16,0,0,1,121.653,321.964Zm0,0" transform="translate(-102.586 -268.542)" fill="#11304c"/>
    <path id="Trazado_164" data-name="Trazado 164" d="M233.653,321.956a1.161,1.161,0,0,1-1.161-1.161V315.3a1.161,1.161,0,0,1,2.323,0v5.492A1.16,1.16,0,0,1,233.653,321.956Zm0,0" transform="translate(-198.327 -268.536)" fill="#11304c"/>
    <path id="Trazado_165" data-name="Trazado 165" d="M75.074,227.731a18.6,18.6,0,0,1-18.582-18.582,1.161,1.161,0,0,1,2.323,0,16.259,16.259,0,1,0,32.518,0,1.161,1.161,0,0,1,2.323,0A18.6,18.6,0,0,1,75.074,227.731Zm0,0" transform="translate(-47.877 -177.793)" fill="#11304c"/>
    <path id="Trazado_166" data-name="Trazado 166" d="M57.654,171.049a1.161,1.161,0,0,1-1.161-1.161V163.22a1.161,1.161,0,0,1,2.323,0v6.668A1.16,1.16,0,0,1,57.654,171.049Zm0,0" transform="translate(-47.877 -138.531)" fill="#11304c"/>
    <path id="Trazado_167" data-name="Trazado 167" d="M297.653,171.089a1.161,1.161,0,0,1-1.161-1.161v-6.661a1.161,1.161,0,1,1,2.323,0v6.661A1.16,1.16,0,0,1,297.653,171.089Zm0,0" transform="translate(-253.036 -138.571)" fill="#11304c"/>
    <path id="Trazado_168" data-name="Trazado 168" d="M125.136,356.627a1.166,1.166,0,0,1-.643-.2l-3.484-2.32a1.161,1.161,0,1,1,1.289-1.933l3.484,2.32a1.162,1.162,0,0,1-.646,2.128Zm0,0" transform="translate(-102.585 -300.884)" fill="#11304c"/>
    <path id="Trazado_169" data-name="Trazado 169" d="M145.65,363.457a1.161,1.161,0,0,1-.28-2.288l4.645-1.16a1.161,1.161,0,1,1,.562,2.253l-4.645,1.16A1.181,1.181,0,0,1,145.65,363.457Zm0,0" transform="translate(-123.1 -307.715)" fill="#11304c"/>
    <path id="Trazado_170" data-name="Trazado 170" d="M209.654,356.627a1.161,1.161,0,0,1-.645-2.128l3.484-2.32a1.161,1.161,0,0,1,1.289,1.933l-3.484,2.32A1.167,1.167,0,0,1,209.654,356.627Zm0,0" transform="translate(-177.811 -300.884)" fill="#11304c"/>
    <path id="Trazado_171" data-name="Trazado 171" d="M182.3,363.46a1.182,1.182,0,0,1-.282-.035l-4.645-1.16a1.161,1.161,0,1,1,.562-2.253l4.645,1.16a1.161,1.161,0,0,1-.28,2.288Zm0,0" transform="translate(-150.457 -307.718)" fill="#11304c"/>
    <path id="Trazado_174" data-name="Trazado 174" d="M75.188,168.163c-16.752,0-18.408-6.062-18.541-6.753a1.161,1.161,0,0,1,2.273-.474c.049.16,1.648,4.905,16.268,4.905,14.8,0,16.293-4.865,16.307-4.915a1.179,1.179,0,0,1,1.392-.847,1.144,1.144,0,0,1,.878,1.337c-.137.69-1.829,6.746-18.576,6.746Zm0,0" transform="translate(-47.991 -136.795)" fill="#11304c"/>
    <path id="Trazado_175" data-name="Trazado 175" d="M92.629,162.35H57.79a1.161,1.161,0,1,1,0-2.323H92.629a1.161,1.161,0,1,1,0,2.323Zm0,0" transform="translate(-47.994 -136.795)" fill="#11304c"/>
    <path id="Trazado_176" data-name="Trazado 176" d="M92.629,122.343H57.79a1.161,1.161,0,1,1,0-2.323H92.629a1.161,1.161,0,1,1,0,2.323Zm0,0" transform="translate(-47.994 -102.595)" fill="#11304c"/>
    <path id="Trazado_177" data-name="Trazado 177" d="M57.79,128.15a1.16,1.16,0,0,1-1.161-1.161v-5.808a1.161,1.161,0,0,1,2.323,0v5.808A1.161,1.161,0,0,1,57.79,128.15Zm0,0" transform="translate(-47.994 -102.595)" fill="#11304c"/>
    <path id="Trazado_178" data-name="Trazado 178" d="M297.782,128.15a1.16,1.16,0,0,1-1.161-1.161v-5.808a1.161,1.161,0,0,1,2.323,0v5.808A1.161,1.161,0,0,1,297.782,128.15Zm0,0" transform="translate(-253.147 -102.595)" fill="#11304c"/>
    <path id="Trazado_179" data-name="Trazado 179" d="M297.769,88.105a1.147,1.147,0,0,1-.593-.164,1.162,1.162,0,0,1-.4-1.592l3.463-5.812a1.161,1.161,0,1,1,2,1.188l-3.463,5.812a1.159,1.159,0,0,1-1,.568Zm0,0" transform="translate(-253.135 -68.358)" fill="#11304c"/>
    <path id="Trazado_180" data-name="Trazado 180" d="M294.414,41.275a1.159,1.159,0,0,1-.969-.519l-4.622-6.966a1.161,1.161,0,0,1,1.935-1.284l4.622,6.966a1.161,1.161,0,0,1-.966,1.8Zm0,0" transform="translate(-246.315 -27.341)" fill="#11304c"/>
    <path id="Trazado_181" data-name="Trazado 181" d="M193.932,6.969a1.208,1.208,0,0,1-.319-.044L177.334,2.279a1.162,1.162,0,1,1,.637-2.234l16.278,4.647a1.161,1.161,0,0,1-.317,2.278Zm0,0" transform="translate(-150.455 0)" fill="#11304c"/>
    <path id="Trazado_182" data-name="Trazado 182" d="M37.274,88.112a1.16,1.16,0,0,1-1-.567l-3.463-5.813a1.162,1.162,0,0,1,2-1.188l3.463,5.812a1.161,1.161,0,0,1-1,1.755Zm0,0" transform="translate(-27.495 -68.365)" fill="#11304c"/>
    <path id="Trazado_183" data-name="Trazado 183" d="M33.8,41.275a1.162,1.162,0,0,1-.966-1.8l4.622-6.966A1.161,1.161,0,0,1,39.4,33.79l-4.622,6.966a1.16,1.16,0,0,1-.969.519Zm0,0" transform="translate(-27.492 -27.341)" fill="#11304c"/>
    <path id="Trazado_184" data-name="Trazado 184" d="M65.643,6.969a1.161,1.161,0,0,1-.317-2.278L81.6.044a1.162,1.162,0,0,1,.636,2.234L65.962,6.925a1.2,1.2,0,0,1-.319.044Zm0,0" transform="translate(-54.707 0)" fill="#11304c"/>
    <path id="Trazado_185" data-name="Trazado 185" d="M157.266,49.271a4.645,4.645,0,1,1,4.645-4.645A4.65,4.65,0,0,1,157.266,49.271Zm0-6.968a2.323,2.323,0,1,0,2.323,2.323A2.325,2.325,0,0,0,157.266,42.3Zm0,0" transform="translate(-130.051 -34.175)" fill="#11304c"/>
    <path id="Trazado_186" data-name="Trazado 186" d="M149.157,373.78a1.159,1.159,0,0,1-.819-.338l-3.5-3.484a1.161,1.161,0,1,1,1.637-1.647l3.5,3.484a1.162,1.162,0,0,1-.819,1.985Zm0,0" transform="translate(-123.103 -314.553)" fill="#11304c"/>
    <path id="Trazado_187" data-name="Trazado 187" d="M185.78,373.78a1.161,1.161,0,0,1-.823-1.98l3.465-3.484a1.161,1.161,0,0,1,1.647,1.637l-3.465,3.484A1.162,1.162,0,0,1,185.78,373.78Zm0,0" transform="translate(-157.403 -314.553)" fill="#11304c"/>
    <path id="Trazado_188" data-name="Trazado 188" d="M172.105,394.3h-2.323a1.161,1.161,0,0,1,0-2.323h2.323a1.161,1.161,0,0,1,0,2.323Zm0,0" transform="translate(-143.728 -335.069)" fill="#11304c"/>
    <path id="Trazado_189" data-name="Trazado 189" d="M153.79,407.067a1.189,1.189,0,0,1-.209-.019,1.162,1.162,0,0,1-.935-1.351l2.32-12.775a1.162,1.162,0,1,1,2.286.415l-2.323,12.775A1.16,1.16,0,0,1,153.79,407.067Zm0,0" transform="translate(-130.056 -335.065)" fill="#11304c"/>
    <path id="Trazado_190" data-name="Trazado 190" d="M188.085,407.065a1.161,1.161,0,0,1-1.142-.955l-2.3-12.775a1.162,1.162,0,1,1,2.286-.412l2.3,12.775a1.164,1.164,0,0,1-.937,1.35A1.31,1.31,0,0,1,188.085,407.065Zm0,0" transform="translate(-157.406 -335.064)" fill="#11304c"/>
  </g>
</svg>
