<svg xmlns="http://www.w3.org/2000/svg" width="69.479" height="70" viewBox="0 0 69.479 70"><g transform="translate(-1.265 0)"><path d="M69.059,6.345a17.212,17.212,0,0,0-6.8-5.091C57.646-.632,52.4-.389,46.668,1.976c-9.855,4.066-13.241,13.447-14.353,16.53a25.162,25.162,0,0,0-1.371,7.071,9.871,9.871,0,0,0-1.279,2.383,11.4,11.4,0,0,1-2.394-1.612,16.926,16.926,0,0,1-2.664-4.133c-1.932-3.588-4.336-8.053-8.58-9.949a10.129,10.129,0,0,0-8.01-.24,10.093,10.093,0,0,0-5.408,4.741,17.219,17.219,0,0,0-1.252,8.4C1.889,30.126,4.593,34.628,9.4,38.55a24.313,24.313,0,0,0,15.656,5.263,37.168,37.168,0,0,0,5.708-.479,25.175,25.175,0,0,0,6.867-2.148,9.808,9.808,0,0,0,3.336-.117,11.393,11.393,0,0,1-.1,2.885,16.912,16.912,0,0,1-2.09,4.449c-2.017,3.54-4.526,7.946-3.885,12.549a10.13,10.13,0,0,0,4.047,6.919A10.693,10.693,0,0,0,44.984,70a5.375,5.375,0,0,0,.838-.061,17.213,17.213,0,0,0,7.787-3.391c3.921-3.079,6.3-7.759,7.081-13.911,1.338-10.585-5.143-18.159-7.272-20.648A25.141,25.141,0,0,0,47.952,27.3a9.911,9.911,0,0,0-1.593-2.457A11.413,11.413,0,0,1,48.92,23.5a16.929,16.929,0,0,1,4.9-.382c4.069,0,9.145.006,12.829-2.827a10.132,10.132,0,0,0,4.014-6.939A10.086,10.086,0,0,0,69.059,6.345ZM30.516,41.7c-3.062.458-12.38,1.851-20.077-4.431C.561,29.207,2.734,20.7,4.127,17.413a8.442,8.442,0,0,1,4.493-3.85,8.513,8.513,0,0,1,6.734.21c3.731,1.667,5.988,5.858,7.8,9.225a17.492,17.492,0,0,0,3.032,4.594,13.071,13.071,0,0,0,3.035,1.986,9.878,9.878,0,0,0,5.842,10.9A22.094,22.094,0,0,1,30.516,41.7Zm.186-10.32a8.243,8.243,0,1,1,8.243,8.243A8.253,8.253,0,0,1,30.7,31.384ZM52.163,33.06c2.012,2.352,8.136,9.509,6.89,19.37-1.6,12.653-9.967,15.321-13.49,15.881a8.753,8.753,0,0,1-9.039-7.587c-.564-4.047,1.791-8.183,3.684-11.505a17.477,17.477,0,0,0,2.286-5.005,12.851,12.851,0,0,0,.075-3.628,9.89,9.89,0,0,0,6.149-10.733A22.021,22.021,0,0,1,52.163,33.06ZM69.028,13.154a8.516,8.516,0,0,1-3.382,5.83c-3.239,2.492-8,2.491-11.823,2.485a17.5,17.5,0,0,0-5.482.487,13.079,13.079,0,0,0-3.192,1.731,9.864,9.864,0,0,0-12.369-.031,22.088,22.088,0,0,1,1.085-4.59C34.917,16.153,38.116,7.288,47.3,3.5,59.086-1.365,65.543,4.589,67.771,7.375A8.435,8.435,0,0,1,69.028,13.154Z" transform="translate(0 0)" fill="#11304c"/><path d="M163.555,126.4a5.334,5.334,0,1,0,5.334,5.334A5.34,5.34,0,0,0,163.555,126.4Zm0,9.019a3.685,3.685,0,1,1,3.685-3.685A3.689,3.689,0,0,1,163.555,135.423Z" transform="translate(-124.61 -100.354)" fill="#11304c"/></g></svg>