<svg xmlns="http://www.w3.org/2000/svg" width="45.501" height="70" viewBox="0 0 45.501 70"><g transform="translate(-84)"><g transform="translate(92.166)"><g transform="translate(0)"><path d="M164.5,0H145.829a1.167,1.167,0,0,0-1.167,1.167V2.333h-3.5A1.167,1.167,0,0,0,140,3.5v7a1.167,1.167,0,0,0,1.167,1.167h3.5v.891l-4.544,9.087a1.167,1.167,0,0,0,1.044,1.688h4.667a1.167,1.167,0,0,0,1.044-.645L151.216,14h5.112v2.333h-1.167A1.167,1.167,0,0,0,154,17.5v6.517L141.7,36.308A5.8,5.8,0,0,0,140,40.433V64.167A5.84,5.84,0,0,0,145.829,70h21a5.84,5.84,0,0,0,5.833-5.833V17.5a1.167,1.167,0,0,0-1.167-1.167h-1.167V14h5.833a1.167,1.167,0,0,0,1.167-1.167A12.847,12.847,0,0,0,164.5,0ZM142.329,9.333V4.667h2.333V9.333ZM145.108,21H143.05l3.5-7h2.058Zm25.221,43.167a3.5,3.5,0,0,1-3.5,3.5h-21a3.5,3.5,0,0,1-3.5-3.5V40.433a3.479,3.479,0,0,1,1.024-2.476l5.292-5.291h21.684Zm0-33.833h-19.35l4.667-4.667h14.684Zm0-7h-14V18.667h14Zm-11.667-7V14H168v2.333Zm10.5-4.667H147V2.333h17.5a10.515,10.515,0,0,1,10.436,9.333Z" transform="translate(-139.994)" fill="#11304c"/></g></g><g transform="translate(84 5.833)"><rect width="5.833" height="2.333" fill="#11304c"/></g><g transform="translate(84.645 0.124)"><g transform="translate(0)"><rect width="2.333" height="5.217" transform="translate(0 2.087) rotate(-63.435)" fill="#11304c"/></g></g><g transform="translate(84.645 9.456)"><g transform="translate(0)"><rect width="5.217" height="2.333" transform="translate(0 2.333) rotate(-26.565)" fill="#11304c"/></g></g></g></svg>