<svg xmlns="http://www.w3.org/2000/svg" width="81.265" height="72" viewBox="0 0 81.265 72"><g transform="translate(1.129 -19.863)"><g transform="translate(-0.001 20.863)"><g transform="translate(0 0.139)"><path d="M27.018,113.92a3.516,3.516,0,0,0-3.352-2.19c-.713,0-.779.018-1.2.018H9.711a3.32,3.32,0,0,0-3.352,2.172L.193,132.672a3.069,3.069,0,0,0,1.773,3.939,3.021,3.021,0,0,0,3.9-1.79l1.639-4.414s.117-.445.117,1.5v26.027a4.08,4.08,0,1,0,8.16,0v-17a.129.129,0,0,1,.138-.15h1.532a.138.138,0,0,1,.143.15v17a4.08,4.08,0,1,0,8.16,0V131.905c0-1.974.171-1.352.171-1.352l1.585,4.269a3.021,3.021,0,0,0,3.9,1.79,3.069,3.069,0,0,0,1.773-3.939Z" transform="translate(0.001 -92.33)" fill="none" stroke="#11304c" stroke-width="2"/><ellipse cx="8.759" cy="8.669" rx="8.759" ry="8.669" transform="translate(8.011)" fill="none" stroke="#11304c" stroke-width="2"/></g><g transform="translate(44.141 0)"><circle cx="8.759" cy="8.759" r="8.759" transform="translate(8.559)" fill="none" stroke="#11304c" stroke-width="2"/><path d="M239.822,132.884l-7.474-18.206c-.427-.919-.806-2.15-2.562-2.15H216.521a3.43,3.43,0,0,0-3.167,2.169l-7.763,18.068a3.07,3.07,0,0,0,1.379,4.094,3.02,3.02,0,0,0,4.057-1.4l.584-1.2s.181-.323.113.034c-.423,2.225-1.589,8.918-1.589,8.918a2.032,2.032,0,0,0,2.068,2.532h3.381c.242,0,.2.182.2.182v13.454a3.148,3.148,0,1,0,6.27,0V145.875a.12.12,0,0,1,.134-.129c.182.006.643,0,.85,0,.118,0,.1.142.1.142v13.493a3.149,3.149,0,1,0,6.271,0V145.965s-.021-.218.239-.218h3.637a2.081,2.081,0,0,0,2.118-2.542s-1.169-7.179-1.481-9.134c-.089-.561.842,1.43.842,1.43a2.555,2.555,0,0,0,3.6,1.452A3.069,3.069,0,0,0,239.822,132.884Z" transform="translate(-205.279 -92.817)" fill="none" stroke="#11304c" stroke-width="2"/></g><g transform="translate(37.295 0.914)"><path d="M177.1,92.555a1.509,1.509,0,0,1-1.505,1.505h-.645a1.51,1.51,0,0,1-1.505-1.505V26.618a1.51,1.51,0,0,1,1.505-1.505h.645a1.51,1.51,0,0,1,1.505,1.505Z" transform="translate(-173.443 -25.113)" fill="none" stroke="#11304c" stroke-width="2"/></g></g></g></svg>