<svg xmlns="http://www.w3.org/2000/svg" width="72.647" height="72.203" viewBox="0 0 72.647 72.203"><g transform="translate(1.414 0.457)"><g transform="translate(0 0.746)"><path d="M10.438,50.156c.138-.067.272-.14.4-.213a2.243,2.243,0,0,0,.216.249l7.589,7.591a2.519,2.519,0,0,1,2.657-.8l.946.281.589-1.981L14.4,46.846a2.377,2.377,0,0,0-.433-.339l.02-.087a2.136,2.136,0,0,1,.07-.21c.019-.052.04-.106.059-.163s.049-.114.073-.175c.042-.1.086-.212.144-.324l.158-.322.18-.319a4.249,4.249,0,0,1,.26-.419c.053-.077.105-.157.159-.238.047-.063.1-.128.146-.195a5.7,5.7,0,0,1,.362-.449l.087-.1a5.312,5.312,0,0,1,.521-.524l.155-.139c.065-.06.13-.122.2-.177l.37-.269a.138.138,0,0,0,.029-.023,3.777,3.777,0,0,1,.515-.324c.076-.041.15-.083.224-.127a2.844,2.844,0,0,1,.5-.237l.262-.11c.051-.02.1-.043.153-.066a1.252,1.252,0,0,1,.165-.064l.407-.114c.081-.02.175-.047.269-.074a2.8,2.8,0,0,1,.346-.087l1.088-.159a.726.726,0,0,0,.407-.2.722.722,0,0,0-.309-1.2l-1.073-.305a4.057,4.057,0,0,0-.576-.113c-.085-.013-.172-.026-.264-.041l-.47-.073a2.85,2.85,0,0,0-.408-.03l-.148-.005c-.123,0-.212-.007-.3-.011a5.219,5.219,0,0,0-.912.019l-.208.017a6.8,6.8,0,0,0-1.037.142l-.58.117c-.178.044-.328.09-.477.137l-.183.056a9.926,9.926,0,0,0-1.2.445l-.053.022c-.329.137-.629.3-.918.45l-.24.128c-.017.008-.03.018-.046.027-.093.058-.188.115-.28.171-.25.152-.511.309-.752.487l-.4.286-.058.044L10,41.9c-.107.083-.206.166-.3.249a3.575,3.575,0,0,0-1.953,1L6.9,44a5.951,5.951,0,0,0-1.061,1.557C4.506,45.3,2.7,47.269,0,49.966l6.031,6.028C8.1,53.926,10.7,51.489,10.438,50.156Z" transform="translate(0 -33.038)" fill="none" stroke="#11304c" stroke-width="2"/><path d="M362.606,68.53l3.8.735c4.574-5.769,2.843-3.667,1.132-3.449h-6.152Z" transform="translate(-304.874 -51.786)" fill="none" stroke="#11304c" stroke-width="2"/><path d="M127.385,94.411l1.173-3.949h-5.12Z" transform="translate(-104.135 -76.432)" fill="none" stroke="#11304c" stroke-width="2"/><path d="M94.48,39.333V24.7c-.1.141-.2.283-.314.42A12.746,12.746,0,0,1,88.1,29.339h.668v9.995h-15.3l7.171-9.777A6.245,6.245,0,0,0,81,29.042,10.828,10.828,0,0,0,94.259,16.369a.935.935,0,0,0-1.649-.395L87.988,21.81l-6.009-1.163L79.47,15.062l4.624-5.836a.936.936,0,0,0-.76-1.516,10.829,10.829,0,0,0-9.308,15.8c-.143.151-.283.31-.418.48L64.329,35.031l2.246,2.246a4.709,4.709,0,0,1,1.206,2.055h-1a3.749,3.749,0,0,0-.878-1.382L53.128,25.175,52.8,26.289l.866.258a2.54,2.54,0,0,1,1.713,3.16,2.552,2.552,0,0,1-.52.942,4.439,4.439,0,0,1-.16,1.783L53.548,36.3l3.038,3.036H51.353l2.256-7.594a3.3,3.3,0,0,0,0-1.907,1.351,1.351,0,0,0-.23-2.5l-2-.6,5.45-18.343.172.051L58.4,5.707l.554-4.263L56.6.746,54.772,4.63l-.294,3.065.174.052L49.2,26.091l-2.087-.62a1.352,1.352,0,0,0-1.59,1.91,3.316,3.316,0,0,0-1.091,1.633L41.374,39.333H38.51V29.339H42.3l.678-2.285a3.21,3.21,0,0,1,.628-1.207l-6.123-6.273a26.988,26.988,0,0,1-2.96,3.635L32.8,24.933v14.4H30.942V59.324A11.424,11.424,0,0,0,42.366,70.746H84.915A11.421,11.421,0,0,0,96.337,59.324V39.333Zm-52.366,0H50.53S42.339,38.573,42.113,39.333Z" transform="translate(-26.103 -0.746)" fill="none" stroke="#11304c" stroke-width="2"/><path d="M186.007,90.461,183.8,97.9l7.127,7.125h3.82l6.354-7.558a12.885,12.885,0,0,1-.638-7.006H186.007Z" transform="translate(-155.055 -76.432)" fill="none" stroke="#11304c" stroke-width="2"/></g></g></svg>