<svg xmlns="http://www.w3.org/2000/svg" width="100.413" height="59" viewBox="0 0 100.413 59">
  <g id="van-black-side-view" transform="translate(1 -108.806)">
    <path id="Trazado_47" data-name="Trazado 47" d="M93.16,132.28,80.2,127.8l-7.507-12.746c-2.513-3.96-4.224-5.253-11.759-5.253H5.255A5.255,5.255,0,0,0,0,115.059v35.7a5.256,5.256,0,0,0,5.255,5.255H8.043a10.994,10.994,0,0,1,21.95,0h37.76a11,11,0,0,1,21.965,0h3.442a5.254,5.254,0,0,0,5.252-5.255V137.535C98.413,134.633,96.261,133.3,93.16,132.28Zm-19.718-3.044H49.5a.645.645,0,0,1-.648-.645V115.876a.645.645,0,0,1,.648-.645H66.645a1.251,1.251,0,0,1,1.145.645l6.3,12.715A.644.644,0,0,1,73.442,129.237Zm24.046,16.237a1.756,1.756,0,0,1-1.756,1.757H90.317a1.756,1.756,0,0,1-1.756-1.757v-3.952a1.756,1.756,0,0,1,1.756-1.756h5.415a1.756,1.756,0,0,1,1.756,1.756Zm-78.6,1.362a9.985,9.985,0,1,0,9.984,9.986A10,10,0,0,0,18.886,146.835Zm0,16.8a6.815,6.815,0,1,1,6.814-6.815A6.822,6.822,0,0,1,18.886,163.637Zm59.888-16.8a9.985,9.985,0,1,0,9.985,9.986A10,10,0,0,0,78.775,146.835Zm0,16.8a6.815,6.815,0,1,1,6.815-6.815A6.823,6.823,0,0,1,78.775,163.637Z" fill="none" stroke="#11304c" stroke-width="2"/>
  </g>
</svg>
