<svg xmlns="http://www.w3.org/2000/svg" width="72.012" height="72" viewBox="0 0 72.012 72">
  <g id="warehouse_1_" data-name="warehouse (1)" transform="translate(1.005 1)">
    <path id="Trazado_30" data-name="Trazado 30" d="M166.407,427.4h-8.451a1.558,1.558,0,0,0-1.558,1.557v8.452a1.558,1.558,0,0,0,1.558,1.557h8.452a1.558,1.558,0,0,0,1.557-1.557v-8.452a1.558,1.558,0,0,0-1.557-1.557Zm0,0" transform="translate(-135.015 -368.964)" fill="none" stroke="#11304c" stroke-width="2"/>
    <path id="Trazado_31" data-name="Trazado 31" d="M281.009,427.4h-8.452A1.558,1.558,0,0,0,271,428.955v8.452a1.558,1.558,0,0,0,1.557,1.557h8.452a1.557,1.557,0,0,0,1.557-1.557v-8.452A1.557,1.557,0,0,0,281.009,427.4Zm0,0" transform="translate(-233.948 -368.964)" fill="none" stroke="#11304c" stroke-width="2"/>
    <path id="Trazado_32" data-name="Trazado 32" d="M225.27,326.009v-8.451A1.558,1.558,0,0,0,223.712,316h-8.452a1.557,1.557,0,0,0-1.557,1.557v8.451a1.557,1.557,0,0,0,1.557,1.557h8.452A1.557,1.557,0,0,0,225.27,326.009Zm0,0" transform="translate(-184.485 -272.796)" fill="none" stroke="#11304c" stroke-width="2"/>
    <path id="Trazado_33" data-name="Trazado 33" d="M92.418,91.306,63.862,72.635a2.05,2.05,0,0,0-2.245,0L33.062,91.306a2.051,2.051,0,0,0-.929,1.716v37.343a2.051,2.051,0,0,0,2.051,2.051H42.97a2.051,2.051,0,0,0,2.051-2.051V97.27H80.458v33.1a2.051,2.051,0,0,0,2.051,2.051H91.3a2.051,2.051,0,0,0,2.051-2.051V93.023a2.051,2.051,0,0,0-.929-1.716Zm0,0" transform="translate(-27.739 -62.415)" fill="none" stroke="#11304c" stroke-width="2"/>
    <path id="Trazado_34" data-name="Trazado 34" d="M69.961,23.615a2.049,2.049,0,0,0-.873-1.3L36.138.345A2.053,2.053,0,0,0,35,0h0a2.049,2.049,0,0,0-1.138.344L.914,22.311a2.051,2.051,0,0,0-.569,2.844l1.176,1.764a6.167,6.167,0,0,1,1.557-1.461L31.634,6.787a6.155,6.155,0,0,1,6.733,0L66.924,25.458a6.166,6.166,0,0,1,1.557,1.461l1.176-1.764a2.049,2.049,0,0,0,.3-1.54Zm0,0" transform="translate(0 0)" fill="none" stroke="#11304c" stroke-width="2"/>
  </g>
</svg>
